<svg width="495" height="506" viewBox="0 0 495 506" fill="none" xmlns="http://www.w3.org/2000/svg">
<path d="M123.057 396.957H30.492V311.747H123.057V396.957Z" fill="#F5F5F5"/>
<path d="M103.505 374.136H49.995C45.8865 374.136 42.57 370.696 42.57 366.496V355.667C42.57 351.468 45.8865 348.077 49.995 348.077H103.505C107.613 348.077 110.979 351.468 110.979 355.667V366.496C110.979 370.696 107.613 374.136 103.505 374.136Z" fill="#E0E0E0"/>
<path d="M122.512 327.939C122.512 328.09 102.118 328.192 76.9725 328.192C51.777 328.192 31.383 328.09 31.383 327.939C31.383 327.787 51.777 327.686 76.9725 327.686C102.118 327.686 122.512 327.787 122.512 327.939Z" fill="#E0E0E0"/>
<path d="M40.788 321.563C40.788 322.879 39.798 323.941 38.511 323.941C37.224 323.941 36.234 322.879 36.234 321.563C36.234 320.298 37.224 319.235 38.511 319.235C39.798 319.235 40.788 320.298 40.788 321.563Z" fill="#E0E0E0"/>
<path d="M47.619 321.563C47.619 322.879 46.5795 323.941 45.2925 323.941C44.055 323.941 43.0155 322.879 43.0155 321.563C43.0155 320.298 44.055 319.235 45.2925 319.235C46.5795 319.235 47.619 320.298 47.619 321.563Z" fill="#E0E0E0"/>
<path d="M54.4005 321.563C54.4005 322.879 53.361 323.941 52.074 323.941C50.8365 323.941 49.797 322.879 49.797 321.563C49.797 320.298 50.8365 319.235 52.074 319.235C53.361 319.235 54.4005 320.298 54.4005 321.563Z" fill="#E0E0E0"/>
<path d="M60.3405 361.79V362.954C60.3405 364.32 59.697 365.13 58.3605 365.13C57.0735 365.13 56.3805 364.32 56.3805 362.954V358.45C56.3805 357.034 57.0735 356.275 58.3605 356.275C59.697 356.275 60.3405 357.034 60.3405 358.45V359.26H59.103V358.349C59.103 357.742 58.806 357.489 58.41 357.489C57.9645 357.489 57.717 357.742 57.717 358.349V363.055C57.717 363.662 57.9645 363.865 58.41 363.865C58.806 363.865 59.103 363.662 59.103 363.055V361.79H60.3405Z" fill="white"/>
<path d="M61.182 356.376H62.5185V363.763H64.6965V365.028H61.182V356.376Z" fill="white"/>
<path d="M65.2905 356.376H66.627V365.028H65.2905V356.376Z" fill="white"/>
<path d="M71.4285 361.79V362.954C71.4285 364.32 70.7355 365.13 69.4485 365.13C68.1615 365.13 67.4685 364.32 67.4685 362.954V358.45C67.4685 357.034 68.1615 356.275 69.4485 356.275C70.7355 356.275 71.4285 357.034 71.4285 358.45V359.26H70.191V358.349C70.191 357.742 69.894 357.489 69.498 357.489C69.0525 357.489 68.805 357.742 68.805 358.349V363.055C68.805 363.662 69.0525 363.865 69.498 363.865C69.894 363.865 70.191 363.662 70.191 363.055V361.79H71.4285Z" fill="white"/>
<path d="M74.0025 361.588L73.557 362.347V365.028H72.27V356.376H73.557V360.12L75.339 356.376H76.6755L74.7945 360.221L76.6755 365.028H75.2895L74.0025 361.588Z" fill="white"/>
<path d="M80.487 365.028H79.1505V356.376H80.487V360.07H81.972V356.376H83.358V365.028H81.972V361.335H80.487V365.028Z" fill="white"/>
<path d="M85.635 360.019H87.4665V361.233H85.635V363.763H87.9615V365.028H84.2985V356.376H87.9615V357.59H85.635V360.019Z" fill="white"/>
<path fill-rule="evenodd" clip-rule="evenodd" d="M91.5255 365.028C91.476 364.826 91.4265 364.674 91.4265 363.966V362.6C91.4265 361.79 91.179 361.486 90.5355 361.486H90.09V365.028H88.7535V356.376H90.783C92.169 356.376 92.763 357.034 92.763 358.349V359.058C92.763 359.918 92.466 360.525 91.872 360.778C92.565 361.082 92.763 361.739 92.763 362.65V363.966C92.763 364.371 92.763 364.725 92.9115 365.028H91.5255ZM90.0405 357.59V360.272H90.585C91.08 360.272 91.377 360.019 91.377 359.361V358.501C91.377 357.894 91.179 357.59 90.684 357.59H90.0405Z" fill="white"/>
<path d="M94.941 360.019H96.7725V361.233H94.941V363.763H97.2675V365.028H93.654V356.376H97.2675V357.59H94.941V360.019Z" fill="white"/>
<path d="M149.44 111.118H53.163C46.233 111.118 40.59 105.349 40.59 98.3158V77.671C40.59 70.6376 46.233 64.8692 53.163 64.8692H149.44C156.37 64.8692 162.013 70.6376 162.013 77.671V98.3158C162.013 105.349 156.37 111.118 149.44 111.118Z" fill="#E0E0E0"/>
<path d="M72.2205 89.2584V91.2824C72.2205 93.7618 70.983 95.1786 68.6565 95.1786C66.33 95.1786 65.142 93.7618 65.142 91.2824V83.2876C65.142 80.8588 66.33 79.442 68.6565 79.442C70.983 79.442 72.2205 80.8588 72.2205 83.2876V84.8056H69.9435V83.1358C69.9435 82.0732 69.498 81.6178 68.7555 81.6178C67.9635 81.6178 67.518 82.0732 67.518 83.1358V91.4342C67.518 92.5474 67.9635 92.9522 68.7555 92.9522C69.498 92.9522 69.9435 92.5474 69.9435 91.4342V89.2584H72.2205Z" fill="white"/>
<path d="M73.656 79.5938H75.9825V92.8004H79.893V94.9762H73.656V79.5938Z" fill="white"/>
<path d="M80.9325 79.5938H83.259V94.9762H80.9325V79.5938Z" fill="white"/>
<path d="M91.872 89.2584V91.2824C91.872 93.7618 90.6345 95.1786 88.308 95.1786C86.031 95.1786 84.7935 93.7618 84.7935 91.2824V83.2876C84.7935 80.8588 86.031 79.442 88.308 79.442C90.6345 79.442 91.872 80.8588 91.872 83.2876V84.8056H89.595V83.1358C89.595 82.0732 89.1495 81.6178 88.407 81.6178C87.6645 81.6178 87.1695 82.0732 87.1695 83.1358V91.4342C87.1695 92.5474 87.6645 92.9522 88.407 92.9522C89.1495 92.9522 89.595 92.5474 89.595 91.4342V89.2584H91.872Z" fill="white"/>
<path d="M96.3765 88.8536L95.634 90.2704V94.9762H93.3075V79.5938H95.634V86.3236L98.7525 79.5938H101.128L97.812 86.4754L101.128 94.9762H98.703L96.3765 88.8536Z" fill="white"/>
<path d="M107.86 94.9762H105.534V79.5938H107.86V86.2224H110.583V79.5938H112.959V94.9762H110.583V88.3982H107.86V94.9762Z" fill="white"/>
<path d="M117.068 86.0706H120.285V88.297H117.068V92.8004H121.127V94.9762H114.692V79.5938H121.127V81.8202H117.068V86.0706Z" fill="white"/>
<path fill-rule="evenodd" clip-rule="evenodd" d="M127.512 94.9762C127.413 94.5714 127.314 94.369 127.314 93.104V90.6752C127.314 89.2584 126.869 88.7524 125.78 88.7524H124.938V94.9762H122.612V79.5938H126.176C128.601 79.5938 129.641 80.7576 129.641 83.1358V84.3502C129.641 85.9188 129.146 86.9814 128.106 87.4874C129.294 87.9934 129.69 89.1572 129.69 90.7258V93.104C129.69 93.863 129.69 94.4196 129.938 94.9762H127.512ZM124.938 81.8202V86.526H125.879C126.72 86.526 127.265 86.1212 127.265 84.9068V83.3888C127.265 82.2756 126.918 81.8202 126.077 81.8202H124.938Z" fill="white"/>
<path d="M133.601 86.0706H136.818V88.297H133.601V92.8004H137.66V94.9762H131.225V79.5938H137.66V81.8202H133.601V86.0706Z" fill="white"/>
<path d="M339.471 64.6668V161.869V181.35L357.885 161.869H445.054V64.6668H339.471Z" fill="#F5F5F5"/>
<path d="M444.461 83.1358C444.461 83.2876 421.196 83.4394 392.486 83.4394C363.776 83.4394 340.511 83.2876 340.511 83.1358C340.511 82.984 363.776 82.8322 392.486 82.8322C421.196 82.8322 444.461 82.984 444.461 83.1358Z" fill="#E0E0E0"/>
<path d="M351.252 75.9C351.252 77.3674 350.064 78.5818 348.629 78.5818C347.193 78.5818 346.005 77.3674 346.005 75.9C346.005 74.4326 347.193 73.2182 348.629 73.2182C350.064 73.2182 351.252 74.4326 351.252 75.9Z" fill="#E0E0E0"/>
<path d="M359.024 75.9C359.024 77.3674 357.836 78.5818 356.4 78.5818C354.915 78.5818 353.777 77.3674 353.777 75.9C353.777 74.4326 354.915 73.2182 356.4 73.2182C357.836 73.2182 359.024 74.4326 359.024 75.9Z" fill="#E0E0E0"/>
<path d="M366.746 75.9C366.746 77.3674 365.558 78.5818 364.122 78.5818C362.687 78.5818 361.499 77.3674 361.499 75.9C361.499 74.4326 362.687 73.2182 364.122 73.2182C365.558 73.2182 366.746 74.4326 366.746 75.9Z" fill="#E0E0E0"/>
<path fill-rule="evenodd" clip-rule="evenodd" d="M377.636 125.741H370.656L369.369 129.03H364.568L371.894 112.13H376.497L383.823 129.03H378.923L377.636 125.741ZM376.299 122.25L374.171 116.835L372.042 122.25H376.299Z" fill="#E0E0E0"/>
<path fill-rule="evenodd" clip-rule="evenodd" d="M385.11 112.13H392.931C398.426 112.13 402.188 115.419 402.188 120.58C402.188 125.792 398.426 129.03 392.931 129.03H385.11V112.13ZM392.783 125.235C395.555 125.235 397.485 123.515 397.485 120.58C397.485 117.696 395.555 115.975 392.783 115.975H389.813V125.235H392.783Z" fill="#E0E0E0"/>
<path d="M403.475 127.512L405.009 123.97C406.494 124.982 408.573 125.64 410.504 125.64C412.434 125.64 413.177 125.083 413.177 124.274C413.177 121.592 403.772 123.565 403.772 117.291C403.772 114.255 406.197 111.775 411.098 111.775C413.226 111.775 415.454 112.281 417.087 113.293L415.652 116.835C414.068 115.975 412.533 115.52 411.048 115.52C409.118 115.52 408.425 116.178 408.425 117.038C408.425 119.618 417.78 117.696 417.78 123.919C417.78 126.854 415.355 129.384 410.454 129.384C407.732 129.384 405.059 128.625 403.475 127.512Z" fill="#E0E0E0"/>
<path d="M445.797 383.7C440.055 395.439 426.096 400.195 414.612 394.326C403.079 388.456 398.426 374.238 404.168 362.498C409.86 350.759 423.819 346.003 435.303 351.872C446.837 357.742 451.49 372.011 445.797 383.7Z" fill="#F5F5F5"/>
<path d="M440.847 381.22C436.441 390.126 425.848 393.769 417.087 389.266C408.325 384.813 404.761 373.934 409.117 365.028C413.473 356.072 424.116 352.48 432.877 356.932C441.639 361.385 445.203 372.264 440.847 381.22Z" fill="#EBEBEB"/>
<path d="M441.045 380.664C440.946 380.664 441.243 379.905 441.589 378.539C441.936 377.172 442.332 375.148 442.184 372.618C442.134 371.353 441.936 370.038 441.54 368.621C441.144 367.204 440.55 365.737 439.709 364.32C439.313 363.612 438.867 362.954 438.323 362.245C437.778 361.588 437.184 360.93 436.541 360.373C435.897 359.766 435.204 359.209 434.462 358.703C433.703 358.197 432.911 357.742 432.086 357.337C431.228 356.932 430.37 356.595 429.512 356.325C428.621 356.072 427.779 355.92 426.888 355.819C426.047 355.718 425.156 355.667 424.364 355.718C423.522 355.718 422.681 355.819 421.889 355.92C420.305 356.224 418.82 356.73 417.533 357.287C416.246 357.944 415.107 358.653 414.117 359.412C412.186 360.93 410.9 362.549 410.108 363.713C409.316 364.877 408.969 365.585 408.87 365.534C408.771 365.484 409.018 364.725 409.662 363.409C410.355 362.144 411.543 360.373 413.523 358.653C414.513 357.793 415.701 356.983 417.038 356.275C418.424 355.566 419.958 355.01 421.641 354.706C422.532 354.504 423.374 354.402 424.314 354.352C425.205 354.352 426.146 354.352 427.037 354.453C427.977 354.554 428.918 354.757 429.858 355.01C430.815 355.279 431.739 355.634 432.63 356.072C433.554 356.511 434.412 357 435.204 357.54C436.046 358.096 436.788 358.703 437.481 359.361C438.174 360.019 438.768 360.727 439.313 361.436C439.907 362.144 440.352 362.903 440.798 363.713C441.639 365.231 442.233 366.799 442.629 368.317C442.976 369.835 443.124 371.252 443.174 372.618C443.174 375.25 442.629 377.324 442.084 378.69C441.589 380.057 441.144 380.714 441.045 380.664Z" fill="#E0E0E0"/>
<path fill-rule="evenodd" clip-rule="evenodd" d="M422.037 383.7L420.701 386.533L418.226 385.319L419.512 382.536C417.136 381.17 415.157 379.247 414.266 377.476L417.087 375.047C417.928 376.616 419.364 378.184 421.096 379.196L423.076 374.997C420.651 372.922 417.978 370.493 419.711 366.85C420.998 364.168 423.968 362.802 428.126 364.269L429.462 361.436L431.937 362.65L430.65 365.433C432.432 366.496 434.016 367.913 434.956 369.481L432.234 371.961C431.293 370.594 430.204 369.532 429.066 368.773L427.036 373.124C429.462 375.098 432.036 377.527 430.353 381.119C429.116 383.75 426.145 385.117 422.037 383.7ZM424.809 371.252L426.541 367.66C425.056 367.305 424.215 367.761 423.819 368.621C423.373 369.481 423.918 370.341 424.809 371.252ZM426.244 379.449C426.64 378.589 426.145 377.729 425.254 376.818L423.621 380.36C425.007 380.664 425.848 380.259 426.244 379.449Z" fill="#E0E0E0"/>
<path d="M462.083 475.185C462.083 475.336 366.003 475.438 247.5 475.438C128.948 475.438 32.9175 475.336 32.9175 475.185C32.9175 475.033 128.948 474.932 247.5 474.932C366.003 474.932 462.083 475.033 462.083 475.185Z" fill="#263238"/>
<path d="M286.011 210.901L283.734 304.106C283.388 319.994 279.626 343.169 255.173 341.449C234.036 338.261 229.136 317.515 229.482 302.74C229.68 295.706 229.829 289.837 229.779 289.128C229.779 289.128 206.613 286.295 205.524 262.766C204.98 251.431 205.722 227.902 206.663 206.65C207.653 183.779 225.671 165.563 247.995 164.754L250.223 164.703C274.23 165.209 287.199 186.36 286.011 210.901Z" fill="#FFBE9D"/>
<path d="M229.779 289.128C229.779 289.128 244.332 289.483 259.43 278.958C259.43 278.958 252.747 296.415 229.68 295.15L229.779 289.128Z" fill="#EB996E"/>
<path d="M245.52 217.732C245.965 218.238 248.688 216.163 252.549 216.163C256.41 216.163 259.182 218.238 259.627 217.782C259.825 217.529 259.38 216.669 258.192 215.708C256.954 214.797 254.925 213.836 252.499 213.836C250.123 213.836 248.094 214.746 246.906 215.708C245.718 216.619 245.322 217.529 245.52 217.732Z" fill="#263238"/>
<path d="M244.778 226.688C244.778 228.358 246.164 229.775 247.896 229.775C249.629 229.825 251.015 228.459 251.015 226.789C251.015 225.119 249.629 223.753 247.896 223.703C246.164 223.652 244.778 225.018 244.778 226.688Z" fill="#263238"/>
<path d="M234.927 244.702C234.927 244.499 232.7 244.196 229.136 243.841C228.245 243.791 227.354 243.639 227.205 243.032C226.958 242.374 227.304 241.362 227.7 240.249C228.459 237.989 229.268 235.61 230.126 233.114C233.492 222.994 235.868 214.645 235.472 214.493C235.076 214.392 232.007 222.488 228.69 232.659C227.865 235.155 227.09 237.533 226.364 239.793C226.067 240.856 225.522 242.07 226.017 243.437C226.265 244.145 226.958 244.6 227.552 244.752C228.146 244.904 228.641 244.904 229.086 244.904C232.7 244.955 234.927 244.904 234.927 244.702Z" fill="#263238"/>
<path d="M247.698 203.007C248.045 203.918 251.163 203.361 254.826 203.716C258.539 203.969 261.509 204.981 261.954 204.171C262.152 203.766 261.608 202.957 260.42 202.096C259.182 201.287 257.252 200.528 255.074 200.376C252.846 200.174 250.866 200.629 249.53 201.236C248.193 201.843 247.55 202.602 247.698 203.007Z" fill="#263238"/>
<path d="M210.425 203.817C210.821 204.525 213.84 203.867 217.454 203.867C221.117 203.817 224.087 204.475 224.532 203.766C224.681 203.412 224.136 202.754 222.899 202.147C221.661 201.54 219.731 201.034 217.553 201.034C215.375 201.034 213.395 201.54 212.157 202.147C210.87 202.805 210.276 203.463 210.425 203.817Z" fill="#263238"/>
<path d="M284.724 228.408C285.12 228.206 300.366 223.045 300.465 239.136C300.515 255.277 284.675 251.988 284.625 251.533C284.625 251.077 284.724 228.408 284.724 228.408Z" fill="#FFBE9D"/>
<path d="M289.427 245.41C289.526 245.359 289.724 245.612 290.169 245.815C290.615 246.017 291.407 246.169 292.248 245.865C293.882 245.258 295.268 242.526 295.367 239.642C295.367 238.174 295.07 236.757 294.575 235.594C294.08 234.43 293.337 233.62 292.496 233.468C291.654 233.266 291.06 233.772 290.862 234.227C290.664 234.683 290.763 234.986 290.664 235.037C290.615 235.088 290.318 234.784 290.466 234.126C290.516 233.772 290.714 233.418 291.06 233.114C291.456 232.76 292.001 232.608 292.595 232.659C293.832 232.76 294.921 233.873 295.466 235.138C296.109 236.454 296.505 238.022 296.456 239.642C296.357 242.88 294.723 245.916 292.446 246.624C291.357 246.928 290.417 246.574 289.971 246.22C289.476 245.815 289.377 245.461 289.427 245.41Z" fill="#EB996E"/>
<path d="M306.603 203.159C303.534 197.34 302.99 190.56 301.455 184.133C299.871 177.758 295.268 169.611 289.278 167.182C283.982 163.843 276.903 163.995 272.3 167.688C271.458 159.289 266.063 154.33 258.192 151.901C250.272 149.472 237.402 150.231 229.631 153.116C223.641 155.342 217.751 160.098 210.524 167.182C207.455 170.168 204.633 173.356 202.109 176.796L194.387 198.453L199.931 210.192C200.228 211.002 200.574 211.761 201.02 212.571V212.52L205.475 236.909C206.069 230.331 206.415 207.359 207.009 200.781C217.008 200.68 226.166 196.935 233.145 189.598C236.808 185.753 239.778 180.844 244.58 178.618C250.767 175.784 257.945 178.314 264.281 180.794L263.984 180.541C267.3 182.261 270.221 184.639 272.646 187.473C270.765 200.376 271.607 213.785 275.121 226.334C275.666 228.257 277.151 232.153 278.933 232.962C282.447 234.48 283.487 230.837 285.714 228.965C287.348 227.599 289.674 227.498 292.199 227.599C293.832 223.652 295.614 216.922 297.099 211.053C299.228 211.812 301.505 212.065 303.732 211.761C303.105 210.074 302.478 208.388 301.851 206.701C302.742 207.308 303.633 207.915 304.623 208.118C305.663 208.32 306.851 207.966 307.346 207.005C307.989 205.79 307.247 204.373 306.603 203.159Z" fill="#263238"/>
<path d="M266.508 172.04C266.459 172.141 267.449 172.698 268.736 174.317C270.023 175.886 271.409 178.567 271.953 182.211C272.25 184.032 272.398 186.056 272.349 188.232C272.25 190.357 272.002 192.685 271.755 195.114C271.507 197.542 271.26 200.123 271.309 202.805C271.359 204.12 271.458 205.487 271.706 206.903C271.904 208.219 272.2 209.686 273.141 210.901C273.933 211.862 275.22 212.318 276.358 212.115C277.497 211.963 278.536 211.356 279.328 210.547C280.863 208.826 281.308 206.6 281.754 204.677L281.259 204.728C282.001 206.499 282.744 208.27 283.882 209.737C285.021 211.154 286.605 212.166 288.288 212.368C289.08 212.469 289.921 212.368 290.664 212.065C291.406 211.71 291.951 211.103 292.297 210.496C292.693 209.838 292.892 209.13 292.892 208.421C292.892 207.713 292.644 207.055 292.198 206.549L291.951 206.802C293.634 208.927 295.465 210.091 296.752 210.749C297.396 211.103 297.891 211.306 298.237 211.407C298.6 211.542 298.782 211.592 298.782 211.559C298.815 211.559 298.65 211.491 298.287 211.356C297.94 211.154 297.446 210.951 296.851 210.597C295.614 209.889 293.832 208.674 292.198 206.6L291.951 206.802C292.693 207.662 292.694 209.13 292.001 210.294C291.654 210.85 291.109 211.356 290.466 211.66C289.822 211.963 289.08 212.065 288.337 211.913C286.803 211.71 285.318 210.8 284.278 209.433C283.189 208.017 282.447 206.296 281.754 204.525L281.457 203.716L281.259 204.525C280.813 206.499 280.368 208.624 278.932 210.192C278.239 210.901 277.299 211.457 276.309 211.559C275.269 211.71 274.23 211.356 273.586 210.547C272.745 209.484 272.448 208.118 272.201 206.802C272.003 205.436 271.854 204.12 271.854 202.805C271.755 200.174 272.052 197.593 272.25 195.164C272.497 192.735 272.745 190.408 272.794 188.232C272.844 186.056 272.646 183.982 272.349 182.16C271.705 178.466 270.22 175.734 268.884 174.165C267.547 172.597 266.508 172.04 266.508 172.04Z" fill="#455A64"/>
<path d="M210.425 217.884C210.87 218.39 213.593 216.315 217.454 216.315C221.315 216.315 224.087 218.39 224.532 217.934C224.73 217.681 224.285 216.821 223.047 215.86C221.859 214.949 219.83 213.987 217.404 213.987C215.028 213.987 212.999 214.898 211.811 215.86C210.623 216.77 210.227 217.681 210.425 217.884Z" fill="#263238"/>
<path d="M212.751 225.524C212.751 227.194 214.137 228.56 215.87 228.611C217.553 228.611 218.939 227.295 218.939 225.625C218.939 223.956 217.553 222.539 215.87 222.539C214.137 222.488 212.751 223.804 212.751 225.524Z" fill="#263238"/>
<path d="M204.138 174.165C202.109 176.796 199.04 179.124 195.872 178.669C194.882 178.517 192.456 177.555 192.456 177.555C191.318 178.213 191.466 182.16 192.209 183.273C193.001 184.386 194.585 185.904 194.585 185.904C190.773 187.878 187.358 186.765 183.348 185.145C183.893 192.179 188.397 198.706 194.684 201.641C196.713 202.552 199.139 203.058 201.02 201.894C202.703 200.882 203.396 198.807 203.94 196.935C205.92 189.902 207.009 182.666 207.257 175.43L204.138 174.165Z" fill="#263238"/>
<path d="M238.244 252.595C238.689 251.583 239.927 250.925 241.016 250.925C242.055 250.875 242.996 250.824 243.788 251.583C245.223 253 245.768 255.479 244.877 257.352C243.936 259.224 241.511 260.236 239.63 259.325C237.798 258.465 237.056 253.557 238.343 251.887" fill="#EB996E"/>
<path d="M237.65 256.137C237.699 256.087 237.749 256.441 238.046 257.048C238.293 257.605 238.887 258.414 239.927 258.768C240.966 259.123 242.451 259.021 243.689 258.313C244.877 257.554 245.52 255.732 245.124 254.063C244.728 252.393 243.194 251.33 241.758 251.178C240.323 250.976 239.036 251.735 238.343 252.595C237.699 253.455 237.551 254.467 237.551 255.075C237.6 255.732 237.699 256.087 237.65 256.137C237.617 256.137 237.567 256.053 237.501 255.884C237.468 255.716 237.419 255.463 237.353 255.125C237.303 254.467 237.353 253.405 238.095 252.342C238.788 251.381 240.174 250.521 241.808 250.672C243.392 250.824 245.124 252.039 245.619 253.961C246.065 255.834 245.322 257.807 243.936 258.718C242.501 259.527 240.966 259.527 239.828 259.123C238.689 258.667 238.095 257.756 237.848 257.149C237.699 256.846 237.699 256.542 237.65 256.39C237.617 256.222 237.617 256.137 237.65 256.137Z" fill="#263238"/>
<path d="M266.657 171.939C266.607 171.989 266.112 170.623 264.33 168.903C262.598 167.233 259.429 165.26 255.074 164.855C252.945 164.703 250.569 164.956 248.094 165.715C245.669 166.474 243.194 167.688 240.818 169.308C236.016 172.597 231.759 177.454 227.156 182.312C224.78 184.791 222.404 187.068 219.83 188.991C217.305 190.863 214.583 192.432 211.811 193.343C206.267 195.215 200.772 194.861 196.565 193.596C192.357 192.381 189.239 190.408 187.358 188.839C186.896 188.434 186.483 188.063 186.12 187.726C185.774 187.422 185.526 187.119 185.279 186.866C185.081 186.663 184.916 186.495 184.784 186.36C184.685 186.225 184.635 186.157 184.635 186.157C184.635 186.157 184.701 186.208 184.833 186.309C184.965 186.444 185.147 186.613 185.378 186.815C185.625 187.018 185.873 187.321 186.219 187.625C186.615 187.928 187.044 188.283 187.506 188.687C189.387 190.205 192.506 192.078 196.664 193.241C200.822 194.405 206.217 194.759 211.662 192.887C214.385 191.976 217.058 190.458 219.533 188.536C222.057 186.663 224.433 184.386 226.76 181.958C231.413 177.1 235.67 172.192 240.57 168.903C242.996 167.284 245.52 166.019 247.995 165.31C250.47 164.551 252.945 164.298 255.123 164.501C259.578 164.905 262.746 166.98 264.479 168.751C265.369 169.662 265.865 170.471 266.211 171.028C266.376 171.298 266.492 171.517 266.558 171.686C266.657 171.854 266.69 171.939 266.657 171.939Z" fill="#455A64"/>
<path d="M220.968 296.921L229.68 295.15L283.685 291.76L295.218 294.947L293.684 323.638L267.647 340.589L242.402 340.083L226.562 325.307L223.047 310.633L220.968 296.921Z" fill="#FFBE9D"/>
<path d="M368.231 342.056C364.568 334.264 361.004 328.04 357.885 323.081C351.648 313.366 342.194 306.332 331.254 303.296L289.625 291.76C289.625 291.76 287.447 334.264 258.836 334.264C230.225 334.264 224.631 294.391 224.631 294.391L176.468 314.074C174.834 314.732 163.647 318.679 150.678 347.167C138.303 374.288 132.858 388.153 132.858 388.153L182.457 402.776L185.576 448.417L184.536 474.476L335.115 474.122L334.274 444.319L334.868 398.677L336.749 401.815L386.892 381.271C386.892 381.271 380.408 367.71 368.231 342.056Z" fill="#FF725E"/>
<path d="M335.66 369.633C335.858 369.633 335.759 386.129 335.363 406.47C334.967 426.811 334.472 443.307 334.274 443.256C334.026 443.256 334.175 426.76 334.571 406.419C334.917 386.129 335.412 369.633 335.66 369.633Z" fill="#263238"/>
<path d="M174.983 360.323C175.032 360.272 175.23 360.879 175.527 361.992C175.824 363.106 176.22 364.725 176.715 366.698C177.656 370.696 178.794 376.211 179.883 382.334C180.972 388.507 181.764 394.123 182.259 398.171C182.457 400.195 182.655 401.865 182.754 402.978C182.853 404.142 182.853 404.749 182.804 404.8C182.754 404.8 182.606 404.142 182.408 403.029C182.21 401.747 181.962 400.162 181.665 398.273C181.071 394.225 180.18 388.659 179.091 382.485C178.052 376.363 176.963 370.847 176.171 366.799C175.775 364.944 175.461 363.359 175.23 362.043C175.032 360.93 174.933 360.323 174.983 360.323Z" fill="#263238"/>
<path d="M137.165 389.418L116.969 430.808C114.741 435.464 113.652 440.574 113.9 445.735C114.692 461.826 127.661 474.476 143.402 474.476L201.267 471.035L203.792 444.066L159.786 433.187L176.468 400.954L137.165 389.418Z" fill="#FFBE9D"/>
<path d="M159.786 433.187C159.736 433.389 157.756 433.035 154.588 433.035C151.371 433.085 146.965 433.642 142.362 435.261C137.758 436.83 133.947 439.157 131.422 441.181C128.947 443.205 127.759 444.875 127.611 444.774C127.561 444.723 127.809 444.268 128.353 443.509C128.898 442.75 129.739 441.738 130.977 440.625C133.402 438.449 137.313 435.919 142.065 434.3C146.767 432.63 151.321 432.225 154.588 432.326C156.222 432.428 157.509 432.579 158.4 432.782C159.291 432.984 159.786 433.136 159.786 433.187Z" fill="#EB996E"/>
<path d="M177.161 400.6C177.26 400.651 176.913 401.865 176.22 403.788C175.478 405.711 174.339 408.241 172.904 410.973C171.419 413.706 169.884 416.084 168.696 417.703C167.459 419.322 166.667 420.284 166.568 420.182C166.37 420.081 169.29 415.983 172.211 410.619C175.131 405.205 176.913 400.55 177.161 400.6Z" fill="#EB996E"/>
<path d="M384.813 474.324H316.899V448.114L356.252 431.061L341.649 399.791L381.002 383.649L400.257 427.368C404.712 440.068 409.266 446.09 405.405 457.677C403.376 463.648 395.01 474.324 384.813 474.324Z" fill="#FFBE9D"/>
<path d="M192.456 442.497H203.792C203.792 442.497 229.333 433.035 234.58 433.946C239.332 434.755 256.658 446.494 260.073 448.822C260.42 449.126 260.716 449.48 260.865 449.935C261.558 451.807 260.667 453.983 258.836 454.742L258.439 454.894L258.588 455.4C258.786 456.058 258.885 456.817 258.885 457.525C258.737 460.005 255.469 460.764 254.232 458.638L254.876 459.802C255.173 460.308 255.271 460.865 255.222 461.421L255.173 462.484C255.123 463.698 254.331 464.71 253.242 465.115C252.153 465.469 251.015 465.115 250.272 464.306C248.045 461.826 243.292 456.867 240.075 456.311C237.253 455.855 232.501 455.754 229.63 455.805C228.145 455.805 226.859 456.716 226.314 458.132C228.195 458.234 241.51 465.318 246.213 467.848C247.648 468.657 248.737 470.074 248.935 471.744C249.084 473.211 248.341 474.83 245.421 474.122C239.184 472.604 227.947 467.342 227.947 467.342C227.947 467.342 222.156 465.672 218.394 468.354C213.147 472.149 210.721 473.565 206.167 472.047C201.663 470.479 198.297 468.303 198.297 468.303L189.338 467.392C189.338 467.392 180.922 445.786 192.456 442.497Z" fill="#FFBE9D"/>
<path d="M226.215 446.899C226.215 447 228.047 446.393 231.017 446.191C233.987 445.988 238.194 446.343 242.402 448.164C246.609 450.036 249.777 452.87 251.658 455.198C253.589 457.576 254.43 459.296 254.529 459.246C254.529 459.195 254.331 458.79 253.935 458.031C253.539 457.272 252.896 456.21 251.955 454.995C250.074 452.566 246.857 449.581 242.6 447.709C238.293 445.837 233.987 445.584 230.967 445.837C229.482 445.988 228.294 446.241 227.453 446.494C226.661 446.697 226.215 446.849 226.215 446.899Z" fill="#EB996E"/>
<path d="M228.938 440.524C228.938 440.675 230.769 439.765 233.937 439.663C237.056 439.512 241.412 440.473 245.52 443.003C249.629 445.584 252.747 448.822 254.925 451.099C255.965 452.263 256.806 453.174 257.499 453.882C258.093 454.54 258.44 454.894 258.44 454.894C258.489 454.894 258.192 454.489 257.598 453.781C257.054 453.072 256.212 452.06 255.173 450.897C253.044 448.518 249.975 445.179 245.768 442.598C241.61 440.018 237.105 439.056 233.888 439.309C232.304 439.41 231.017 439.714 230.175 440.018C229.779 440.119 229.433 440.271 229.235 440.372C229.004 440.473 228.905 440.524 228.938 440.524Z" fill="#EB996E"/>
<path d="M333.482 443.307H322.146C322.146 443.307 296.604 433.844 291.357 434.755C286.605 435.565 269.28 447.355 265.865 449.682C265.518 449.935 265.221 450.289 265.073 450.745C264.38 452.668 265.271 454.793 267.102 455.552L267.498 455.704L267.35 456.26C267.152 456.867 267.053 457.626 267.053 458.335C267.201 460.865 270.468 461.573 271.706 459.448L271.062 460.662C270.814 461.118 270.666 461.674 270.716 462.231L270.765 463.294C270.815 464.508 271.607 465.52 272.696 465.925C273.785 466.279 274.923 465.975 275.666 465.115C277.893 462.636 282.645 457.677 285.863 457.12C288.684 456.665 293.436 456.614 296.357 456.614C297.792 456.614 299.079 457.525 299.624 458.942C297.743 459.043 284.427 466.127 279.724 468.657C278.289 469.467 277.2 470.884 277.002 472.553C276.854 474.071 277.596 475.64 280.517 474.932C286.754 473.464 297.99 468.151 297.99 468.151C297.99 468.151 303.782 466.481 307.544 469.163C312.791 473.009 315.216 474.375 319.77 472.857C324.324 471.288 327.641 469.113 327.641 469.113L336.6 468.202C336.6 468.202 345.015 446.596 333.482 443.307Z" fill="#FFBE9D"/>
<path d="M299.723 447.709C299.723 447.81 297.891 447.203 294.921 447C291.951 446.798 287.744 447.152 283.536 448.974C279.329 450.846 276.161 453.68 274.28 456.058C272.349 458.385 271.508 460.106 271.409 460.055C271.409 460.055 271.607 459.6 272.003 458.841C272.399 458.082 273.042 457.019 273.983 455.805C275.864 453.376 279.081 450.391 283.338 448.569C287.645 446.697 291.951 446.393 294.971 446.697C296.456 446.798 297.644 447.051 298.485 447.304C299.277 447.506 299.723 447.658 299.723 447.709Z" fill="#EB996E"/>
<path d="M297 441.333C297 441.485 295.169 440.574 292.001 440.473C288.882 440.321 284.526 441.283 280.418 443.813C276.309 446.393 273.191 449.632 271.013 451.909C269.973 453.072 269.132 453.983 268.439 454.742C267.845 455.4 267.498 455.754 267.498 455.704C267.449 455.704 267.746 455.299 268.34 454.59C268.884 453.882 269.726 452.921 270.765 451.706C272.894 449.328 275.963 445.988 280.17 443.408C284.328 440.827 288.833 439.866 292.05 440.119C293.634 440.22 294.921 440.524 295.763 440.827C296.159 440.928 296.505 441.08 296.703 441.181C296.934 441.283 297.033 441.333 297 441.333Z" fill="#EB996E"/>
<path d="M386.595 432.934C386.496 433.035 385.061 431.922 382.388 430.657C381.695 430.353 380.952 429.999 380.16 429.746C379.368 429.392 378.477 429.189 377.537 428.886C375.656 428.43 373.577 428.025 371.349 427.874C369.122 427.772 366.993 427.874 365.063 428.177C364.122 428.329 363.182 428.481 362.34 428.683C361.499 428.886 360.756 429.139 360.063 429.341C357.242 430.302 355.658 431.213 355.608 431.112C355.608 431.061 356.004 430.859 356.747 430.454C357.093 430.201 357.539 429.999 358.083 429.746C358.628 429.543 359.222 429.24 359.915 428.987C360.657 428.734 361.4 428.481 362.241 428.278C363.083 428.025 364.023 427.874 364.964 427.671C366.944 427.368 369.072 427.216 371.349 427.368C373.626 427.519 375.755 427.924 377.636 428.43C378.576 428.734 379.517 428.987 380.309 429.341C381.15 429.645 381.843 429.999 382.536 430.302C383.229 430.657 383.774 431.011 384.269 431.314C384.813 431.567 385.209 431.871 385.556 432.124C386.249 432.63 386.595 432.883 386.595 432.934Z" fill="#EB996E"/>
<path d="M328.928 477.664H187.457C183.447 477.664 180.131 474.426 179.982 470.327L175.725 370.797C175.527 366.395 178.943 362.751 183.249 362.751H332.937C337.194 362.751 340.61 366.395 340.412 370.746L336.452 470.276C336.303 474.426 332.987 477.664 328.928 477.664Z" fill="#E0E0E0"/>
<path d="M328.928 477.664C328.928 477.613 329.423 477.664 330.314 477.512C331.205 477.31 332.541 476.905 333.878 475.691C335.165 474.527 336.452 472.452 336.402 469.77C336.501 467.105 336.617 464.053 336.749 460.612C337.293 446.849 338.036 426.912 338.976 402.27C339.207 396.097 339.455 389.637 339.719 382.89C339.851 379.551 339.983 376.127 340.115 372.618C340.164 371.758 340.214 370.847 340.214 369.987C340.164 369.178 339.966 368.317 339.62 367.508C338.976 365.889 337.739 364.573 336.204 363.763C335.412 363.409 334.571 363.106 333.729 363.004C332.838 362.954 331.947 363.004 331.056 363.004C329.241 363.004 327.426 363.004 325.611 363.004C321.915 363.004 318.186 363.004 314.424 363.004C306.867 363.004 299.096 363.004 291.11 363.004C259.232 363.004 224.136 363.004 187.358 363.004C186.203 363.004 185.048 363.004 183.893 363.004C182.754 363.004 181.665 363.106 180.626 363.51C178.547 364.32 176.913 366.142 176.27 368.317C176.121 368.874 176.022 369.431 175.973 369.987C175.973 370.527 175.989 371.084 176.022 371.657C176.088 372.838 176.138 374.002 176.171 375.148C176.27 377.442 176.369 379.736 176.468 382.03C176.864 391.172 177.243 400.179 177.606 409.05C178.349 426.811 179.091 443.914 179.784 460.207C179.883 462.231 179.966 464.255 180.032 466.279C180.065 467.257 180.114 468.252 180.18 469.264C180.18 470.276 180.23 471.238 180.527 472.149C181.071 474.021 182.358 475.589 183.992 476.5C184.784 476.956 185.675 477.259 186.615 477.36C187.506 477.462 188.496 477.411 189.437 477.411C196.994 477.411 204.32 477.411 211.415 477.411C225.572 477.462 238.788 477.462 250.866 477.462C274.973 477.512 294.476 477.512 307.989 477.563C314.721 477.563 319.968 477.613 323.532 477.613C325.314 477.613 326.667 477.613 327.591 477.613C328.482 477.613 328.928 477.664 328.928 477.664C328.928 477.664 328.482 477.664 327.591 477.664C326.667 477.698 325.314 477.715 323.532 477.715C319.968 477.715 314.721 477.715 307.989 477.765C294.476 477.765 274.973 477.816 250.866 477.816C238.788 477.866 225.572 477.866 211.415 477.866C204.32 477.866 196.994 477.866 189.437 477.866C188.447 477.866 187.556 477.917 186.566 477.816C185.576 477.715 184.635 477.411 183.744 476.905C182.012 475.944 180.675 474.274 180.081 472.3C179.784 471.339 179.735 470.276 179.685 469.264C179.652 468.286 179.619 467.291 179.586 466.279C179.487 464.255 179.388 462.231 179.289 460.207C178.596 443.914 177.854 426.811 177.111 409.101C176.748 400.229 176.369 391.205 175.973 382.03C175.874 379.77 175.775 377.476 175.676 375.148C175.61 374.002 175.56 372.855 175.527 371.708C175.494 371.134 175.478 370.544 175.478 369.937C175.527 369.329 175.626 368.722 175.775 368.166C176.468 365.838 178.2 363.915 180.428 363.055C181.517 362.6 182.754 362.448 183.893 362.498C185.048 362.498 186.203 362.498 187.358 362.498C224.136 362.498 259.232 362.498 291.11 362.498C299.096 362.532 306.867 362.549 314.424 362.549C318.186 362.549 321.915 362.549 325.611 362.549C327.426 362.549 329.241 362.549 331.056 362.549C331.947 362.549 332.838 362.498 333.779 362.6C334.67 362.701 335.561 362.954 336.353 363.409C337.986 364.219 339.323 365.636 340.016 367.356C340.362 368.166 340.56 369.076 340.61 369.987C340.659 370.898 340.56 371.758 340.56 372.618C340.428 376.127 340.28 379.567 340.115 382.941C339.851 389.654 339.587 396.097 339.323 402.27C338.333 426.912 337.491 446.849 336.947 460.612C336.782 464.053 336.65 467.105 336.551 469.77C336.551 472.503 335.264 474.628 333.927 475.792C332.591 476.956 331.205 477.411 330.314 477.563C329.885 477.63 329.538 477.664 329.274 477.664C329.043 477.664 328.928 477.664 328.928 477.664Z" fill="#263238"/>
<path d="M265.815 421.953C265.815 426.356 262.35 429.898 258.044 429.898C253.787 429.898 250.322 426.356 250.322 421.953C250.322 417.602 253.787 414.06 258.044 414.06C262.35 414.06 265.815 417.602 265.815 421.953Z" fill="white"/>
<path d="M168.844 279.565H168.745V157.568H19.7505V279.919H149.44L168.844 299.754V279.565Z" fill="white"/>
<path d="M168.844 279.565C168.844 279.565 168.844 280.004 168.844 280.881C168.844 281.758 168.861 283.056 168.894 284.777C168.894 288.167 168.894 293.227 168.943 299.754V299.957L168.795 299.805C163.647 294.543 157.113 287.863 149.341 280.02H149.44C118.305 280.071 73.062 280.071 19.7505 280.122H19.5525V279.919C19.5525 246.675 19.5525 210.192 19.5525 171.939C19.5525 167.081 19.5525 162.274 19.5525 157.568V157.366H19.7505C75.2895 157.366 126.522 157.366 168.745 157.366H168.894V157.568C168.894 194.456 168.844 224.866 168.844 246.118C168.844 256.744 168.795 265.093 168.795 270.761C168.795 273.594 168.795 275.821 168.795 277.288C168.762 278.03 168.745 278.587 168.745 278.958C168.745 278.587 168.729 278.03 168.696 277.288C168.696 275.821 168.696 273.594 168.696 270.761C168.696 265.093 168.646 256.744 168.646 246.118C168.646 224.866 168.597 194.456 168.597 157.568L168.745 157.72C126.522 157.72 75.2895 157.771 19.7505 157.771L19.9485 157.568C19.9485 162.274 19.9485 167.081 19.9485 171.939C19.9485 210.192 19.9485 246.675 19.9485 279.919L19.7505 279.717C73.062 279.767 118.305 279.767 149.44 279.818H149.49H149.539C157.212 287.762 163.746 294.441 168.894 299.704L168.795 299.754C168.844 286.75 168.844 280.122 168.844 279.565Z" fill="#263238"/>
<path d="M168.745 171.18C168.745 171.281 135.382 171.382 94.248 171.382C53.1135 171.382 19.7505 171.281 19.7505 171.18C19.7505 171.028 53.1135 170.927 94.248 170.927C135.382 170.927 168.745 171.028 168.745 171.18Z" fill="#263238"/>
<path d="M28.413 164.551C28.413 165.614 27.5715 166.474 26.532 166.474C25.4925 166.474 24.651 165.614 24.651 164.551C24.651 163.489 25.4925 162.628 26.532 162.628C27.5715 162.628 28.413 163.489 28.413 164.551Z" fill="#E0E0E0"/>
<path d="M33.957 164.551C33.957 165.614 33.1155 166.474 32.076 166.474C31.0365 166.474 30.195 165.614 30.195 164.551C30.195 163.489 31.0365 162.628 32.076 162.628C33.1155 162.628 33.957 163.489 33.957 164.551Z" fill="#E0E0E0"/>
<path d="M39.501 164.551C39.501 165.614 38.6595 166.474 37.62 166.474C36.5805 166.474 35.739 165.614 35.739 164.551C35.739 163.489 36.5805 162.628 37.62 162.628C38.6595 162.628 39.501 163.489 39.501 164.551Z" fill="#E0E0E0"/>
<path d="M182.952 161.414C182.952 169.358 176.616 175.784 168.844 175.784C161.073 175.784 154.737 169.358 154.737 161.414C154.737 153.419 161.073 146.993 168.844 146.993C176.616 146.993 182.952 153.419 182.952 161.414Z" fill="#FF725E"/>
<path d="M165.379 167.031L163.35 164.956L172.359 155.797L174.339 157.821L165.379 167.031Z" fill="white"/>
<path d="M174.339 164.956L172.359 167.031L163.35 157.821L165.379 155.797L174.339 164.956Z" fill="white"/>
<path d="M88.704 174.013L99.7425 185.651L115.137 181.958L118.256 197.846L133.205 203.26L127.413 218.339L137.115 231.141L124.295 240.603L125.681 256.744L109.84 257.655L102.465 271.975L88.704 263.98L74.943 271.975L67.5675 257.655L51.777 256.744L53.1135 240.603L40.293 231.141L49.995 218.339L44.253 203.26L59.1525 197.846L62.271 181.958L77.6655 185.651L88.704 174.013Z" fill="#FF725E"/>
<g opacity="0.3">
<path d="M82.665 210.192C82.665 206.903 81.5265 206.043 79.7445 206.043C77.9625 206.043 76.824 207.005 76.824 209.636V211.963H71.5275V209.99C71.5275 204.171 74.3985 200.831 79.893 200.831C85.437 200.831 88.2585 204.171 88.2585 209.99V210.951C88.2585 214.848 87.0705 217.327 84.348 218.44C87.1695 219.705 88.2585 222.438 88.2585 226.131V229.016C88.2585 234.835 85.437 238.174 79.893 238.174C74.3985 238.174 71.5275 234.835 71.5275 229.016V225.98H76.824V229.37C76.824 231.95 77.9625 232.962 79.7445 232.962C81.5265 232.962 82.665 232.102 82.665 228.864V225.98C82.665 222.589 81.5265 221.324 79.002 221.324H77.0715V216.113H79.299C81.378 216.113 82.665 215.151 82.665 212.267V210.192Z" fill="black"/>
<path fill-rule="evenodd" clip-rule="evenodd" d="M91.575 209.99C91.575 204.171 94.5945 200.831 100.139 200.831C105.633 200.831 108.653 204.171 108.653 209.99V229.016C108.653 234.835 105.633 238.174 100.139 238.174C94.5945 238.174 91.575 234.835 91.575 229.016V209.99ZM97.218 229.319C97.218 231.95 98.3565 232.962 100.139 232.962C101.921 232.962 103.01 231.95 103.01 229.319V209.585C103.01 207.005 101.921 205.993 100.139 205.993C98.3565 205.993 97.218 207.005 97.218 209.585V229.319Z" fill="black"/>
</g>
<g opacity="0.3">
<path fill-rule="evenodd" clip-rule="evenodd" d="M110.138 200.933C110.138 199.921 110.633 199.313 111.623 199.313C112.613 199.313 113.157 199.921 113.157 200.933V204.272C113.157 205.284 112.613 205.891 111.623 205.891C110.633 205.891 110.138 205.284 110.138 204.272V200.933ZM111.128 204.323C111.128 204.778 111.326 204.981 111.623 204.981C111.969 204.981 112.167 204.778 112.167 204.323V200.831C112.167 200.427 111.969 200.224 111.623 200.224C111.326 200.224 111.128 200.427 111.128 200.831V204.323ZM115.533 199.415H116.474L112.563 209.535H111.623L115.533 199.415ZM115.038 204.677C115.038 203.614 115.583 203.058 116.573 203.058C117.513 203.058 118.058 203.614 118.058 204.677V207.966C118.058 209.029 117.513 209.585 116.573 209.585C115.583 209.585 115.038 209.029 115.038 207.966V204.677ZM116.028 208.118C116.028 208.523 116.226 208.725 116.573 208.725C116.87 208.725 117.068 208.523 117.068 208.118V204.626C117.068 204.171 116.87 203.969 116.573 203.969C116.226 203.969 116.028 204.171 116.028 204.626V208.118Z" fill="black"/>
</g>
<g opacity="0.3">
<path d="M78.5566 239.996C80.7841 239.996 81.9226 241.362 81.9226 243.791V244.246H79.7446V243.639C79.7446 242.576 79.3486 242.172 78.6061 242.172C77.8636 242.172 77.4676 242.576 77.4676 243.639C77.4676 246.675 81.9721 247.282 81.9721 251.533C81.9721 253.911 80.7841 255.277 78.5566 255.277C76.2796 255.277 75.0916 253.911 75.0916 251.533V250.622H77.2696V251.684C77.2696 252.747 77.7646 253.152 78.4576 253.152C79.2001 253.152 79.6456 252.747 79.6456 251.684C79.6456 248.598 75.1906 248.041 75.1906 243.791C75.1906 241.362 76.3291 239.996 78.5566 239.996Z" fill="black"/>
<path fill-rule="evenodd" clip-rule="evenodd" d="M90.684 255.125H88.407L88.011 252.393H85.1895L84.7935 255.125H82.665L84.9915 240.198H88.3575L90.684 255.125ZM85.437 250.369H87.6645L86.5755 242.829L85.437 250.369Z" fill="black"/>
<path d="M91.7731 240.198H94.0501V253H97.8616V255.125H91.7731V240.198Z" fill="black"/>
<path d="M101.129 246.473H104.297V248.598H101.129V253H105.089V255.125H98.8516V240.198H105.089V242.323H101.129V246.473Z" fill="black"/>
</g>
<path d="M80.586 211.255C80.586 207.966 79.4475 207.106 77.6655 207.106C75.8835 207.106 74.745 208.067 74.745 210.698V213.026H69.4485V211.053C69.4485 205.234 72.27 201.894 77.814 201.894C83.3085 201.894 86.1795 205.234 86.1795 211.053V212.014C86.1795 215.91 84.942 218.339 82.269 219.503C85.041 220.768 86.1795 223.5 86.1795 227.194V230.078C86.1795 235.897 83.3085 239.237 77.814 239.237C72.27 239.237 69.4485 235.897 69.4485 230.078V227.042H74.745V230.432C74.745 233.013 75.8835 234.025 77.6655 234.025C79.4475 234.025 80.586 233.114 80.586 229.876V227.042C80.586 223.652 79.4475 222.387 76.8735 222.387H74.9925V217.175H77.1705C79.299 217.175 80.586 216.214 80.586 213.279V211.255Z" fill="white"/>
<path fill-rule="evenodd" clip-rule="evenodd" d="M89.496 211.053C89.496 205.234 92.5155 201.894 98.01 201.894C103.554 201.894 106.573 205.234 106.573 211.053V230.078C106.573 235.897 103.554 239.237 98.01 239.237C92.5155 239.237 89.496 235.897 89.496 230.078V211.053ZM95.139 230.382C95.139 233.013 96.228 233.974 98.01 233.974C99.792 233.974 100.93 233.013 100.93 230.382V210.648C100.93 208.067 99.792 207.055 98.01 207.055C96.228 207.055 95.139 208.067 95.139 210.648V230.382Z" fill="white"/>
<path fill-rule="evenodd" clip-rule="evenodd" d="M108.058 200.933C108.058 199.921 108.553 199.313 109.543 199.313C110.533 199.313 111.028 199.921 111.028 200.933V204.272C111.028 205.284 110.533 205.891 109.543 205.891C108.553 205.891 108.058 205.284 108.058 204.272V200.933ZM109.048 204.323C109.048 204.778 109.197 204.981 109.543 204.981C109.84 204.981 110.038 204.778 110.038 204.323V200.831C110.038 200.427 109.84 200.224 109.543 200.224C109.197 200.224 109.048 200.427 109.048 200.831V204.323ZM113.454 199.415H114.345L110.434 209.535H109.543L113.454 199.415ZM112.959 204.677C112.959 203.614 113.454 203.058 114.444 203.058C115.434 203.058 115.929 203.614 115.929 204.677V207.966C115.929 209.029 115.434 209.585 114.444 209.585C113.454 209.585 112.959 209.029 112.959 207.966V204.677ZM113.949 208.118C113.949 208.523 114.147 208.725 114.444 208.725C114.741 208.725 114.939 208.523 114.939 208.118V204.626C114.939 204.171 114.741 203.969 114.444 203.969C114.147 203.969 113.949 204.171 113.949 204.626V208.118Z" fill="white"/>
<path d="M76.4775 239.996C78.705 239.996 79.8435 241.362 79.8435 243.791V244.246H77.6655V243.639C77.6655 242.576 77.2695 242.172 76.527 242.172C75.7845 242.172 75.3885 242.576 75.3885 243.639C75.3885 246.675 79.8435 247.282 79.8435 251.533C79.8435 253.911 78.705 255.277 76.428 255.277C74.2005 255.277 73.0125 253.911 73.0125 251.533V250.622H75.1905V251.684C75.1905 252.747 75.636 253.152 76.3785 253.152C77.121 253.152 77.5665 252.747 77.5665 251.684C77.5665 248.598 73.062 248.041 73.062 243.791C73.062 241.362 74.25 239.996 76.4775 239.996Z" fill="white"/>
<path fill-rule="evenodd" clip-rule="evenodd" d="M88.605 255.125H86.2785L85.8825 252.393H83.061L82.665 255.125H80.586L82.9125 240.198H86.2785L88.605 255.125ZM83.358 250.369H85.5855L84.447 242.829L83.358 250.369Z" fill="white"/>
<path d="M89.6445 240.198H91.971V253H95.733V255.125H89.6445V240.198Z" fill="white"/>
<path d="M99.0495 246.473H102.168V248.598H99.0495V253H103.01V255.125H96.723V240.198H103.01V242.323H99.0495V246.473Z" fill="white"/>
<path d="M118.354 182.717L118.998 181.249C119.641 181.654 120.483 181.958 121.324 181.958C122.116 181.958 122.463 181.705 122.463 181.35C122.463 180.237 118.453 181.047 118.453 178.416C118.453 177.151 119.493 176.088 121.572 176.088C122.463 176.088 123.403 176.29 124.096 176.695L123.502 178.213C122.809 177.859 122.166 177.657 121.572 177.657C120.73 177.657 120.433 177.96 120.433 178.314C120.433 179.377 124.393 178.567 124.393 181.199C124.393 182.464 123.354 183.526 121.275 183.526C120.136 183.526 118.998 183.172 118.354 182.717Z" fill="#E0E0E0"/>
<path d="M127.66 181.452L127.116 182.008V183.374H125.185V175.784H127.116V179.782L129.046 177.859H131.274L129.046 180.187L131.472 183.374H129.195L127.66 181.452Z" fill="#E0E0E0"/>
<path d="M131.818 176.189C131.818 175.633 132.264 175.177 132.957 175.177C133.65 175.177 134.145 175.582 134.145 176.189C134.145 176.796 133.65 177.252 132.957 177.252C132.264 177.252 131.818 176.796 131.818 176.189ZM132.016 177.859H133.897V183.374H132.016V177.859Z" fill="#E0E0E0"/>
<path fill-rule="evenodd" clip-rule="evenodd" d="M141.174 180.591C141.174 182.362 140.036 183.476 138.551 183.476C137.924 183.476 137.412 183.273 137.016 182.868V185.348H135.135V177.859H136.967V178.365C137.313 177.96 137.858 177.758 138.551 177.758C140.036 177.758 141.174 178.871 141.174 180.591ZM139.293 180.591C139.293 179.782 138.798 179.276 138.155 179.276C137.511 179.276 137.016 179.782 137.016 180.591C137.016 181.452 137.511 181.907 138.155 181.907C138.798 181.907 139.293 181.452 139.293 180.591Z" fill="#E0E0E0"/>
<path fill-rule="evenodd" clip-rule="evenodd" d="M149.737 181.958H146.817L146.223 183.374H144.243L147.312 176.24H149.242L152.361 183.374H150.282L149.737 181.958ZM149.193 180.44L148.252 178.163L147.361 180.44H149.193Z" fill="#E0E0E0"/>
<path fill-rule="evenodd" clip-rule="evenodd" d="M158.499 175.784V183.374H156.717V182.818C156.354 183.256 155.826 183.476 155.133 183.476C153.648 183.476 152.46 182.362 152.46 180.591C152.46 178.82 153.648 177.758 155.133 177.758C155.727 177.758 156.272 177.91 156.618 178.314V175.784H158.499ZM156.618 180.591C156.618 179.731 156.123 179.276 155.529 179.276C154.836 179.276 154.391 179.731 154.391 180.591C154.391 181.452 154.836 181.907 155.529 181.907C156.123 181.907 156.618 181.452 156.618 180.591Z" fill="#E0E0E0"/>
<path d="M159.291 182.868L159.885 181.553C160.38 181.856 161.073 182.059 161.766 182.059C162.409 182.059 162.607 181.907 162.607 181.705C162.607 180.946 159.39 181.806 159.39 179.579C159.39 178.567 160.33 177.758 162.063 177.758C162.805 177.758 163.647 177.91 164.191 178.213L163.597 179.529C163.053 179.225 162.508 179.124 162.063 179.124C161.419 179.124 161.172 179.326 161.172 179.529C161.172 180.288 164.34 179.428 164.34 181.654C164.34 182.666 163.449 183.476 161.667 183.476C160.776 183.476 159.835 183.223 159.291 182.868Z" fill="#E0E0E0"/>
<path d="M467.181 203.007H323.631L324.373 305.776H340.065V329.558L361.3 305.776H467.923L467.181 203.007Z" fill="white"/>
<path d="M467.181 203.007C467.181 203.007 467.197 203.614 467.23 204.829C467.23 206.043 467.247 207.831 467.28 210.192C467.329 214.898 467.379 221.881 467.478 230.787C467.626 248.648 467.824 274.353 468.121 305.776V305.978H467.923C437.58 306.029 401.148 306.029 361.3 306.029L361.498 305.978C354.717 313.518 347.539 321.563 340.263 329.76L339.817 330.216V329.558C339.817 322.373 339.817 314.681 339.817 306.889C339.817 306.518 339.817 306.147 339.817 305.776L340.065 306.079C334.785 306.079 329.554 306.079 324.373 306.079H324.126V305.776C323.878 268.787 323.631 233.873 323.433 203.007V202.754H323.631C366.399 202.805 402.286 202.855 427.531 202.906C440.104 202.906 450.054 202.957 456.835 202.957C460.201 202.957 462.775 202.957 464.557 203.007C465.415 203.007 466.075 203.007 466.537 203.007C466.966 203.007 467.181 203.007 467.181 203.007C467.181 203.007 466.95 203.007 466.488 203.007C466.026 203.007 465.366 203.024 464.508 203.058C462.726 203.058 460.102 203.058 456.736 203.058C449.905 203.058 440.005 203.108 427.383 203.108C402.187 203.159 366.349 203.21 323.631 203.26L323.878 203.007C324.126 233.873 324.373 268.787 324.621 305.776L324.373 305.523C329.554 305.523 334.785 305.523 340.065 305.523H340.312V305.776C340.312 306.147 340.312 306.518 340.312 306.889C340.312 314.681 340.312 322.373 340.312 329.558L339.867 329.406C347.193 321.209 354.321 313.214 361.102 305.624L361.201 305.523H361.3C401.148 305.573 437.58 305.573 467.923 305.573L467.725 305.776C467.527 274.404 467.379 248.75 467.28 230.888C467.23 221.982 467.23 214.999 467.181 210.294C467.181 207.899 467.181 206.094 467.181 204.879C467.181 203.665 467.181 203.007 467.181 203.007Z" fill="#263238"/>
<path d="M466.438 217.529C466.438 217.631 434.659 217.732 395.406 217.732C356.202 217.732 324.373 217.631 324.373 217.529C324.373 217.378 356.202 217.276 395.406 217.276C434.659 217.276 466.438 217.378 466.438 217.529Z" fill="#263238"/>
<path d="M332.194 211.761C332.194 212.925 331.303 213.886 330.264 213.886C329.224 213.886 328.383 212.925 328.383 211.761C328.383 210.597 329.224 209.636 330.264 209.636C331.303 209.636 332.194 210.597 332.194 211.761Z" fill="#E0E0E0"/>
<path d="M337.788 211.761C337.788 212.925 336.946 213.886 335.907 213.886C334.867 213.886 333.977 212.925 333.977 211.761C333.977 210.597 334.867 209.636 335.907 209.636C336.946 209.636 337.788 210.597 337.788 211.761Z" fill="#E0E0E0"/>
<path d="M343.431 211.761C343.431 212.925 342.54 213.886 341.5 213.886C340.461 213.886 339.619 212.925 339.619 211.761C339.619 210.597 340.461 209.636 341.5 209.636C342.54 209.636 343.431 210.597 343.431 211.761Z" fill="#E0E0E0"/>
<path d="M417.631 254.366C417.631 265.802 408.573 275.062 397.386 275.062C386.199 275.062 377.14 265.802 377.14 254.366C377.14 242.931 386.199 233.671 397.386 233.671C408.573 233.671 417.631 242.931 417.631 254.366Z" fill="#FF725E"/>
<path d="M392.535 260.438V248.193C392.535 247.636 393.129 247.232 393.673 247.535L404.316 253.708C404.86 253.961 404.86 254.771 404.316 255.024L393.624 261.096C393.129 261.4 392.535 260.995 392.535 260.438Z" fill="white"/>
<path d="M457.083 293.379H333.135V292.721H457.083V293.379Z" fill="#263238"/>
<path d="M371.794 293.733H333.036V292.063H371.794V293.733Z" fill="#FF725E"/>
<path d="M373.032 293.075C373.032 294.239 372.19 295.15 371.151 295.15C370.111 295.15 369.27 294.239 369.27 293.075C369.27 291.911 370.111 290.95 371.151 290.95C372.19 290.95 373.032 291.911 373.032 293.075Z" fill="#FF725E"/>
<path d="M479.754 207.511C479.754 215.202 473.616 221.476 466.092 221.476C458.568 221.476 452.43 215.202 452.43 207.511C452.43 199.769 458.568 193.545 466.092 193.545C473.616 193.545 479.754 199.769 479.754 207.511Z" fill="#FF725E"/>
<path d="M462.726 212.925L460.746 210.951L469.458 202.046L471.438 204.019L462.726 212.925Z" fill="white"/>
<path d="M471.438 210.951L469.458 212.925L460.746 204.019L462.726 202.046L471.438 210.951Z" fill="white"/>
<path d="M196.416 36.938V137.43H286.209L305.613 152.761V137.43V133.483V36.938H196.416Z" fill="white"/>
<path d="M196.416 36.938C196.416 36.938 196.581 36.9211 196.911 36.8874C197.241 36.8874 197.736 36.8874 198.396 36.8874C199.732 36.8874 201.663 36.8874 204.187 36.8874C209.335 36.8368 216.859 36.8368 226.363 36.7862C245.52 36.7862 272.844 36.7356 305.613 36.685H305.811V36.938C305.811 69.1702 305.86 107.171 305.86 147.701C305.86 149.388 305.86 151.075 305.86 152.761V153.318L305.464 152.964C298.881 147.752 292.396 142.641 286.06 137.632L286.209 137.683C253.291 137.683 222.799 137.632 196.416 137.632H196.168V137.43C196.218 107.12 196.267 81.972 196.317 64.3632C196.317 55.6094 196.317 48.7278 196.366 44.0726C196.366 41.745 196.366 39.9571 196.366 38.709C196.399 37.5283 196.416 36.938 196.416 36.938C196.416 36.938 196.416 37.5452 196.416 38.7596C196.416 40.0077 196.432 41.8125 196.465 44.1738C196.465 48.829 196.465 55.7612 196.515 64.515C196.515 82.0732 196.564 107.171 196.614 137.43L196.416 137.227C222.799 137.177 253.291 137.177 286.209 137.177H286.308L286.357 137.227C292.693 142.237 299.178 147.347 305.761 152.559L305.365 152.761C305.365 151.075 305.365 149.388 305.365 147.701C305.365 107.171 305.365 69.1702 305.365 36.938L305.613 37.1404C272.893 37.0898 245.619 37.0392 226.512 37.0392C216.958 36.9886 209.434 36.9886 204.286 36.9886C201.762 36.938 199.782 36.938 198.445 36.938C197.785 36.938 197.274 36.938 196.911 36.938C196.581 36.938 196.416 36.938 196.416 36.938Z" fill="#263238"/>
<path d="M305.019 56.0142C305.019 56.166 280.912 56.3178 251.262 56.3178C221.562 56.3178 197.505 56.166 197.505 56.0142C197.505 55.8118 221.562 55.7106 251.262 55.7106C280.912 55.7106 305.019 55.8118 305.019 56.0142Z" fill="#263238"/>
<path d="M208.593 48.5254C208.593 50.0434 207.355 51.2578 205.87 51.2578C204.385 51.2578 203.197 50.0434 203.197 48.5254C203.197 47.0074 204.385 45.7424 205.87 45.7424C207.355 45.7424 208.593 47.0074 208.593 48.5254Z" fill="#E0E0E0"/>
<path d="M216.612 48.5254C216.612 50.0434 215.374 51.2578 213.889 51.2578C212.404 51.2578 211.167 50.0434 211.167 48.5254C211.167 47.0074 212.404 45.7424 213.889 45.7424C215.374 45.7424 216.612 47.0074 216.612 48.5254Z" fill="#E0E0E0"/>
<path d="M224.581 48.5254C224.581 50.0434 223.393 51.2578 221.908 51.2578C220.374 51.2578 219.186 50.0434 219.186 48.5254C219.186 47.0074 220.374 45.7424 221.908 45.7424C223.393 45.7424 224.581 47.0074 224.581 48.5254Z" fill="#E0E0E0"/>
<path d="M285.466 92.4968C285.862 109.65 272.547 123.869 255.766 124.274C238.986 124.678 225.027 111.118 224.631 94.0148C224.235 76.8614 237.501 62.6428 254.331 62.238C271.111 61.8332 285.07 75.394 285.466 92.4968Z" fill="#FF725E"/>
<path d="M278.239 92.6992C278.536 105.754 268.389 116.582 255.618 116.886C242.797 117.19 232.155 106.867 231.858 93.8124C231.561 80.7576 241.708 69.9292 254.479 69.6256C267.3 69.322 277.893 79.6444 278.239 92.6992Z" fill="#FF725E"/>
<g opacity="0.3">
<path d="M278.19 91.9402C278.041 91.9402 277.942 90.9282 277.497 89.1066C277.101 87.3356 276.309 84.7044 274.675 81.9214C273.834 80.5046 272.794 79.0878 271.507 77.671C270.22 76.3048 268.636 74.9892 266.854 73.876C265.963 73.3194 265.023 72.8134 263.983 72.358C262.993 71.9532 261.904 71.5484 260.815 71.2954C259.726 70.9918 258.588 70.7388 257.4 70.6376C256.212 70.5364 255.024 70.5027 253.836 70.5364C252.615 70.6376 251.427 70.8063 250.272 71.0424C249.133 71.2954 247.995 71.6496 246.955 72.0544C245.866 72.4592 244.876 72.9652 243.886 73.5218C242.946 74.0784 242.055 74.6856 241.213 75.3434C239.58 76.659 238.144 78.1264 237.006 79.6444C235.867 81.1624 234.976 82.731 234.333 84.1984C232.996 87.1838 232.501 89.8656 232.254 91.6872C232.056 93.5088 232.056 94.5714 231.907 94.5714C231.808 94.5714 231.561 93.5594 231.61 91.6366C231.61 89.7138 231.907 86.9308 233.145 83.6924C233.788 82.0732 234.679 80.4034 235.818 78.7336C237.006 77.1144 238.441 75.4446 240.223 74.0278C241.114 73.3194 242.055 72.611 243.045 72.0038C244.084 71.3966 245.173 70.84 246.312 70.3846C247.45 69.9292 248.638 69.575 249.876 69.2714C251.13 69.0015 252.417 68.8329 253.737 68.7654C255.024 68.6979 256.311 68.7317 257.598 68.8666C258.835 68.9678 260.073 69.2208 261.261 69.575C262.449 69.8786 263.587 70.334 264.676 70.7894C265.765 71.2954 266.755 71.852 267.696 72.4592C269.626 73.6736 271.26 75.141 272.596 76.659C273.933 78.177 274.972 79.7456 275.764 81.2636C277.398 84.3502 277.992 87.0826 278.19 89.0054C278.437 90.8776 278.289 91.9402 278.19 91.9402Z" fill="black"/>
</g>
<g opacity="0.3">
<path fill-rule="evenodd" clip-rule="evenodd" d="M257.994 107.323L258.142 111.421L254.529 111.573L254.38 107.576C250.816 107.474 247.351 106.462 245.322 104.995L247.153 100.39C248.985 101.706 251.608 102.617 254.232 102.769L253.984 96.5954C249.975 95.7858 245.421 94.5714 245.223 89.309C245.074 85.4128 247.747 81.9214 253.39 81.0612L253.242 76.9626L256.855 76.8108L257.004 80.8588C259.726 80.96 262.35 81.5672 264.379 82.7816L262.795 87.3862C260.914 86.4248 258.984 85.8682 257.202 85.7164L257.4 91.9402C261.459 92.7498 265.914 93.9642 266.112 99.1254C266.26 102.971 263.637 106.412 257.994 107.323ZM253.786 91.1812L253.588 85.9694C251.707 86.4754 250.965 87.5886 251.014 88.803C251.064 90.068 252.202 90.7258 253.786 91.1812ZM260.32 99.8338C260.271 98.5182 259.182 97.8604 257.647 97.3544L257.796 102.465C259.627 101.959 260.37 100.998 260.32 99.8338Z" fill="black"/>
</g>
<path d="M278.635 92.2438C278.635 92.2438 278.619 92.1089 278.586 91.839C278.553 91.5691 278.52 91.1812 278.487 90.6752C278.454 90.4391 278.421 90.1692 278.388 89.8656C278.388 89.562 278.289 89.2078 278.239 88.8536C278.091 88.1452 277.992 87.285 277.695 86.3742C277.2 84.5526 276.309 82.3768 274.873 80.0998C273.487 77.8228 271.458 75.4446 268.735 73.4712C266.062 71.4978 262.696 69.8786 258.786 69.2714C254.974 68.6642 250.618 68.9172 246.559 70.587C245.52 70.9918 244.53 71.5484 243.54 72.0544C242.599 72.6616 241.609 73.2182 240.718 73.9772C239.778 74.6856 238.986 75.5458 238.144 76.3554C237.352 77.2662 236.56 78.177 235.917 79.189C234.531 81.1624 233.392 83.3888 232.699 85.8176C232.006 88.2464 231.66 90.7764 231.66 93.357C231.759 95.9882 232.254 98.5182 233.046 100.896C233.838 103.275 235.125 105.4 236.56 107.373C237.253 108.335 238.095 109.195 238.936 110.055C239.827 110.865 240.669 111.674 241.609 112.281C242.55 113.04 243.54 113.546 244.53 114.103C245.569 114.558 246.559 115.064 247.599 115.419C251.757 116.886 256.063 116.886 259.924 116.127C263.736 115.368 267.052 113.546 269.626 111.472C272.25 109.347 274.18 106.867 275.467 104.54C276.754 102.212 277.596 99.9856 277.942 98.1134C278.19 97.2026 278.289 96.3424 278.388 95.634C278.437 95.2292 278.487 94.9256 278.536 94.622C278.536 94.3184 278.536 94.0317 278.536 93.7618C278.569 93.2895 278.602 92.9016 278.635 92.598C278.635 92.3619 278.635 92.2438 278.635 92.2438C278.668 92.2438 278.685 92.3619 278.685 92.598C278.685 92.9016 278.685 93.2895 278.685 93.7618C278.652 94.0317 278.635 94.3184 278.635 94.622C278.635 94.9256 278.586 95.2798 278.536 95.634C278.487 96.393 278.388 97.2026 278.14 98.164C277.794 100.036 277.002 102.313 275.715 104.691C274.428 107.07 272.497 109.6 269.874 111.775C267.25 113.901 263.884 115.773 259.974 116.582C256.113 117.341 251.707 117.392 247.45 115.874C246.361 115.52 245.371 115.014 244.332 114.558C243.292 113.951 242.253 113.445 241.362 112.686C240.372 112.079 239.481 111.219 238.59 110.46C237.748 109.549 236.857 108.689 236.164 107.677C234.679 105.703 233.392 103.477 232.6 101.048C231.759 98.6194 231.264 96.0388 231.165 93.4076C231.115 90.7258 231.511 88.1452 232.204 85.6658C232.897 83.1864 234.085 80.9094 235.471 78.8854C236.164 77.8228 237.006 76.912 237.748 76.0012C238.639 75.1916 239.481 74.2808 240.421 73.623C241.312 72.8134 242.352 72.2568 243.292 71.599C244.332 71.093 245.322 70.5364 246.361 70.1822C250.569 68.4618 254.974 68.2088 258.885 68.816C262.795 69.4738 266.26 71.1436 268.983 73.1676C271.705 75.1916 273.735 77.6204 275.121 79.948C276.556 82.2756 277.447 84.4514 277.893 86.3236C278.14 87.2344 278.289 88.0946 278.388 88.8536C278.437 89.2078 278.487 89.5114 278.536 89.8656C278.569 90.1692 278.586 90.4391 278.586 90.6752C278.619 91.1812 278.635 91.5691 278.635 91.839C278.668 92.1089 278.668 92.2438 278.635 92.2438Z" fill="#263238"/>
<path d="M319.77 36.938C319.77 45.2364 313.137 52.0168 305.019 52.0168C296.851 52.0168 290.218 45.2364 290.218 36.938C290.218 28.589 296.851 21.8592 305.019 21.8592C313.137 21.8592 319.77 28.589 319.77 36.938Z" fill="#FF725E"/>
<path d="M301.356 42.8076L299.227 40.6318L308.632 31.0178L310.761 33.1936L301.356 42.8076Z" fill="white"/>
<path d="M310.761 40.6318L308.632 42.8076L299.227 33.1936L301.356 31.0178L310.761 40.6318Z" fill="white"/>
</svg>
