<svg width="542" height="563" viewBox="0 0 542 563" fill="none" xmlns="http://www.w3.org/2000/svg">
<path fill-rule="evenodd" clip-rule="evenodd" d="M139.836 216.755C141.408 215.742 143.088 215.01 144.822 214.503L145.798 209.38L154.145 209.211L155.337 214.278C157.072 214.728 158.752 215.46 160.378 216.361L164.551 213.49L170.567 219.514L167.966 223.961C168.887 225.594 169.646 227.339 170.134 229.141L175.012 230.211L175.174 238.825L170.296 240.063C169.863 241.865 169.212 243.666 168.291 245.299L171.055 249.691L165.31 255.884L160.974 253.181C159.402 254.138 157.776 254.926 156.042 255.433L155.012 260.556L146.665 260.669L145.473 255.602C143.738 255.152 142.058 254.476 140.432 253.575L136.259 256.39L130.243 250.422L132.898 245.975C131.923 244.342 131.218 242.597 130.73 240.795L125.798 239.725L125.636 231.112L130.514 229.873C130.947 228.015 131.598 226.27 132.519 224.637L129.755 220.246L135.554 214.053L139.836 216.755ZM144.226 228.24C140.812 231.9 140.92 237.811 144.443 241.358C148.02 244.905 153.657 244.792 157.072 241.133C160.486 237.417 160.378 231.562 156.855 228.015C153.332 224.468 147.641 224.581 144.226 228.24Z" fill="#E0E0E0"/>
<path d="M66.8286 354.577H50.1892V300.698H66.8286V354.577Z" fill="#F5F5F5"/>
<path d="M91.598 354.577H75.0128V313.028H91.598V354.577Z" fill="#F5F5F5"/>
<path d="M114.579 354.577H97.9937V329.918H114.579V354.577Z" fill="#F5F5F5"/>
<path d="M474.033 452.821C474.033 436.438 461.188 423.151 445.416 423.151C429.589 423.151 416.798 436.438 416.798 452.821C416.798 464.7 423.519 475.003 433.221 479.732C433.221 483.279 433.221 487.22 433.221 487.22H458.261C458.261 487.22 458.424 482.998 458.478 479.282C467.692 474.328 474.033 464.362 474.033 452.821Z" fill="#F5F5F5"/>
<path d="M456.364 492.062H434.847C433.925 492.062 433.221 491.274 433.221 490.373C433.221 489.472 433.925 488.684 434.847 488.684H456.364C457.231 488.684 457.99 489.472 457.99 490.373C457.99 491.274 457.231 492.062 456.364 492.062Z" fill="#E0E0E0"/>
<path d="M456.364 493.526H434.847C433.925 493.526 433.221 494.258 433.221 495.215C433.221 496.116 433.925 496.848 434.847 496.848H437.177L440.321 503.097C440.7 503.772 441.405 504.223 442.164 504.223H449.86C450.619 504.223 451.324 503.772 451.703 503.041L454.738 496.848H456.364C457.231 496.848 457.99 496.116 457.99 495.215C457.99 494.258 457.231 493.526 456.364 493.526Z" fill="#E0E0E0"/>
<path d="M451.324 503.604C451.269 503.66 450.727 503.378 449.806 503.097C448.939 502.815 447.638 502.59 446.175 502.647C444.711 502.703 443.465 502.984 442.543 503.322C441.676 503.66 441.134 503.941 441.08 503.885C441.08 503.829 441.568 503.491 442.489 503.097C443.356 502.703 444.657 502.309 446.175 502.252C447.638 502.196 448.993 502.534 449.914 502.872C450.836 503.21 451.324 503.547 451.324 503.604Z" fill="#FAFAFA"/>
<path d="M454.792 496.96C454.792 497.073 450.89 497.129 446.12 497.129C441.296 497.129 437.394 497.073 437.394 496.96C437.394 496.848 441.296 496.791 446.12 496.791C450.89 496.791 454.792 496.848 454.792 496.96Z" fill="#FAFAFA"/>
<path d="M453.437 499.606C453.437 499.663 452.624 499.719 451.323 499.831C450.023 499.888 448.18 500 446.174 500C444.169 500.057 442.38 500 441.08 500C439.725 499.944 438.912 499.888 438.912 499.831C438.912 499.775 439.725 499.719 441.08 499.719C442.489 499.719 444.223 499.663 446.174 499.663C448.126 499.606 449.914 499.606 451.323 499.55C452.624 499.55 453.437 499.55 453.437 499.606Z" fill="#FAFAFA"/>
<path d="M469.643 443.926C469.643 443.869 469.914 444.432 470.185 445.389C470.51 446.403 470.836 447.867 471.052 449.725C471.54 453.384 471.215 458.789 468.939 464.025C466.608 469.261 462.922 473.033 459.941 475.06C458.478 476.129 457.177 476.805 456.256 477.199C455.334 477.649 454.792 477.818 454.792 477.762C454.738 477.649 456.798 476.805 459.67 474.665C462.543 472.526 466.066 468.81 468.288 463.743C470.565 458.62 470.89 453.384 470.565 449.781C470.294 446.121 469.481 443.926 469.643 443.926Z" fill="white"/>
<path d="M450.998 429.457C450.456 427.43 448.18 426.022 445.416 426.022C445.416 426.022 445.398 426.022 445.362 426.022C440.809 426.473 436.31 427.824 432.354 430.245C426.934 433.51 423.085 439.14 421.676 445.502C421.405 446.684 421.297 447.923 421.568 449.105C421.839 450.344 422.652 451.47 423.844 451.808C424.928 452.202 426.175 451.751 427.096 450.963C427.963 450.231 428.614 449.162 429.21 448.092C430.457 445.671 431.541 443.137 433.058 440.885C434.847 438.296 436.906 436.607 439.345 436.044C441.08 435.65 442.652 435.593 444.332 435.255C446.5 434.749 447.855 434.805 449.372 433.848C450.456 433.116 451.378 430.808 450.998 429.457Z" fill="white"/>
<path d="M427.367 458.451C427.367 460.365 425.904 461.885 424.115 461.885C422.272 461.885 420.809 460.365 420.809 458.451C420.809 456.593 422.272 455.017 424.115 455.017C425.904 455.017 427.367 456.593 427.367 458.451Z" fill="white"/>
<path d="M454.25 487.333C454.25 487.333 454.196 486.939 454.088 486.151C453.979 485.287 453.853 484.161 453.708 482.773C453.329 479.789 452.841 475.566 452.245 470.387C451.974 467.797 451.54 464.982 451.323 461.829C451.323 461.041 451.54 460.14 452.136 459.521C452.733 458.845 453.817 458.62 454.575 459.239C455.28 459.802 455.659 460.647 455.768 461.548C455.876 462.392 455.768 463.293 455.443 464.137C454.846 465.883 453.546 467.29 451.865 468.078C450.239 468.867 448.18 468.81 446.5 467.853C444.819 466.952 443.519 465.376 442.868 463.462C442.543 462.505 442.38 461.435 442.489 460.422C442.597 459.915 442.76 459.352 443.031 458.901C443.356 458.451 443.898 458.113 444.44 458.113C445.036 458.057 445.578 458.395 445.903 458.789C446.283 459.127 446.554 459.577 446.771 460.084C447.204 461.041 447.258 462.054 447.313 463.068C447.313 465.038 446.716 467.121 445.307 468.472C443.952 469.88 441.893 470.499 440.104 469.824C438.37 469.092 437.177 467.628 436.31 466.108C435.876 465.357 435.551 464.55 435.334 463.687C435.118 462.899 434.847 461.998 435.063 461.153C435.118 460.703 435.28 460.253 435.66 459.915C435.985 459.577 436.581 459.521 436.96 459.802C437.773 460.309 437.882 461.21 438.099 461.942C438.966 464.926 439.399 467.797 439.616 470.443C440.05 475.735 439.562 480.014 439.02 482.885C438.424 485.813 437.882 487.333 437.882 487.333C437.882 487.333 437.99 486.939 438.153 486.151C438.315 485.419 438.586 484.293 438.803 482.829C439.291 479.958 439.779 475.679 439.291 470.443C439.02 467.853 438.586 465.038 437.719 462.054C437.502 461.322 437.34 460.534 436.744 460.14C436.473 460.027 436.147 460.027 435.931 460.253C435.66 460.478 435.551 460.872 435.497 461.21C435.334 461.942 435.497 462.786 435.714 463.574C435.967 464.363 436.292 465.132 436.689 465.883C437.502 467.346 438.695 468.754 440.267 469.373C441.838 469.993 443.735 469.373 444.982 468.135C446.283 466.896 446.879 464.982 446.825 463.068C446.771 462.111 446.716 461.153 446.337 460.253C445.958 459.464 445.307 458.564 444.494 458.62C443.627 458.62 443.085 459.577 442.977 460.478C442.868 461.435 443.031 462.392 443.302 463.293C443.898 465.038 445.145 466.615 446.716 467.459C448.288 468.304 450.131 468.36 451.703 467.628C453.491 468.022 454.575 465.883 455.063 464.025C455.334 463.237 455.443 462.392 455.334 461.604C455.226 460.816 454.901 460.027 454.304 459.577C453.762 459.127 452.949 459.296 452.462 459.802C451.974 460.309 451.757 461.097 451.757 461.829C451.974 464.869 452.353 467.741 452.57 470.387C453.112 475.51 453.546 479.732 453.871 482.773C454.015 484.161 454.124 485.287 454.196 486.151C454.25 486.939 454.25 487.333 454.25 487.333Z" fill="#E0E0E0"/>
<path d="M458.532 75.3857L471.161 76.6806C471.161 76.6806 472.19 65.6458 483.247 66.5466C488.992 66.997 491.594 71.2195 492.57 74.316C493.599 77.9192 492.841 81.8602 490.673 84.9004C488.179 88.3347 483.085 91.5438 474.738 89.1229L471.974 118.399L484.494 119.694L486.12 102.297C486.12 102.297 504.114 99.3695 506.011 79.3267C507.8 60.0721 490.944 53.8791 482.326 53.0346C476.906 52.4716 460.483 52.1901 458.532 75.3857Z" fill="#F5F5F5"/>
<path d="M482.922 138.104L470.239 136.809L471.377 124.479L484.06 125.774L482.922 138.104Z" fill="#F5F5F5"/>
<path d="M453.491 74.879L466.12 76.1739C466.12 76.1739 467.15 65.1391 478.207 66.0399C483.952 66.4903 486.553 70.7128 487.475 73.8093C488.559 77.4125 487.8 81.3535 485.578 84.3937C483.085 87.828 478.098 90.6993 469.697 88.2784L466.933 117.892L479.453 119.131L481.079 101.79C481.079 101.79 499.074 98.8628 500.916 78.7637C502.759 59.5654 486.553 53.4287 479.453 52.6968C474.033 52.1901 455.443 51.6834 453.491 74.879Z" fill="#EBEBEB"/>
<path d="M477.881 137.597L465.199 136.302L466.337 123.973L479.02 125.267L477.881 137.597Z" fill="#EBEBEB"/>
<path fill-rule="evenodd" clip-rule="evenodd" d="M268.886 43.7451C270.512 42.8443 272.192 42.1687 273.981 41.7183L275.228 36.6513L283.52 36.9328L284.496 42.0561C286.23 42.5628 287.856 43.351 289.428 44.3081L293.764 41.662L299.455 47.9676L296.691 52.3027C297.558 53.9354 298.208 55.737 298.588 57.5386L303.466 58.8335L303.249 67.4474L298.317 68.4608C297.829 70.2624 297.07 72.0077 296.095 73.6404L298.642 78.0881L292.626 84.0559L288.452 81.1283C286.826 82.0291 285.146 82.7047 283.412 83.1551L282.165 88.2221L273.818 87.9406L272.843 82.8173C271.163 82.3106 269.482 81.5787 267.911 80.5653L263.575 83.2114L257.884 76.9621L260.702 72.627C259.781 70.938 259.13 69.1364 258.751 67.3348L253.873 66.0399L254.09 57.426L259.022 56.4126C259.564 54.611 260.268 52.8657 261.244 51.2893L258.697 46.7853L264.713 40.8175L268.886 43.7451ZM272.843 55.4555C269.266 59.0024 269.103 64.8576 272.463 68.5734C275.878 72.2892 281.515 72.4581 285.092 68.9112C288.669 65.4206 288.832 59.5654 285.417 55.8496C282.057 52.1338 276.42 51.9649 272.843 55.4555Z" fill="#E0E0E0"/>
<path fill-rule="evenodd" clip-rule="evenodd" d="M219.835 37.3269C220.973 36.6513 222.166 36.0883 223.358 35.7505L224.117 32.091L230.025 31.9784L230.892 35.6379C232.139 35.9194 233.331 36.4261 234.469 37.1017L237.45 35.0186L241.732 39.2974L239.889 42.5065C240.54 43.6325 241.082 44.8711 241.407 46.166L244.93 46.9542L245.038 53.0909L241.569 53.9917C241.244 55.2303 240.756 56.5252 240.106 57.7075L242.111 60.804L237.992 65.2517L234.903 63.2812C233.819 64.0131 232.626 64.5198 231.38 64.9139L230.675 68.5171L224.713 68.6297L223.9 65.0265C222.654 64.745 221.407 64.2383 220.269 63.5627L217.288 65.5895L213.006 61.3107L214.903 58.1579C214.216 56.9944 213.693 55.7745 213.331 54.4984L209.862 53.7102L209.754 47.5735L213.223 46.6727C213.548 45.3778 213.982 44.1392 214.632 42.9569L212.681 39.8604L216.8 35.4127L219.835 37.3269ZM222.979 45.5467C220.54 48.1365 220.594 52.3027 223.141 54.8362C225.635 57.3697 229.7 57.3134 232.139 54.7236C234.523 52.0775 234.469 47.9113 231.976 45.3778C229.429 42.8443 225.418 42.9006 222.979 45.5467Z" fill="#F5F5F5"/>
<path fill-rule="evenodd" clip-rule="evenodd" d="M318.642 215.404C319.78 214.728 320.972 214.222 322.165 213.827L322.924 210.168L328.831 210.112L329.699 213.715C330.945 213.996 332.138 214.503 333.276 215.179L336.257 213.152L340.539 217.374L338.696 220.583C339.346 221.766 339.888 223.004 340.213 224.243L343.736 225.031L343.845 231.168L340.322 232.069C340.051 233.364 339.563 234.602 338.913 235.784L340.918 238.881L336.799 243.329L333.709 241.414C332.625 242.09 331.433 242.597 330.186 242.991L329.428 246.65L323.52 246.707L322.653 243.103C321.46 242.822 320.214 242.315 319.075 241.64L316.094 243.666L311.813 239.444L313.71 236.235C313.023 235.071 312.499 233.851 312.138 232.575L308.669 231.787L308.561 225.65L312.029 224.75C312.3 223.455 312.788 222.216 313.439 221.034L311.487 217.937L315.607 213.49L318.642 215.404ZM321.785 223.624C319.346 226.213 319.401 230.436 321.948 232.969C324.441 235.447 328.452 235.39 330.891 232.801C333.33 230.154 333.276 225.988 330.728 223.455C328.235 220.921 324.224 220.978 321.785 223.624Z" fill="#F5F5F5"/>
<path d="M500.591 527.7C500.591 527.869 397.828 527.981 271 527.981C144.172 527.981 41.4088 527.869 41.4088 527.7C41.4088 527.531 144.172 527.418 271 527.418C397.828 527.418 500.591 527.531 500.591 527.7Z" fill="#263238"/>
<path d="M49.8098 484.011L58.1024 527.531H101.137L110.243 484.743L49.8098 484.011Z" fill="#FF725E"/>
<path d="M44.8776 477.424V483.504C44.8776 485.531 46.4494 487.164 48.4548 487.164H110.785C112.736 487.164 114.362 485.531 114.362 483.504V477.424C114.362 475.566 112.899 474.046 111.11 474.046H48.1296C46.341 474.046 44.8776 475.566 44.8776 477.424Z" fill="#FF725E"/>
<g opacity="0.4">
<path d="M50.2434 487.164L50.7854 490.204L108.292 494.427L109.755 487.164H50.2434Z" fill="black"/>
</g>
<path d="M104.498 507.939C104.498 508.108 93.3323 508.22 79.6197 508.22C65.8529 508.22 54.7419 508.108 54.7419 507.939C54.7419 507.77 65.8529 507.657 79.6197 507.657C93.3323 507.657 104.498 507.77 104.498 507.939Z" fill="white"/>
<path d="M104.823 511.542C104.823 511.711 93.7117 511.823 79.9449 511.823C66.2323 511.823 55.0671 511.711 55.0671 511.542C55.0671 511.373 66.2323 511.26 79.9449 511.26C93.7117 511.26 104.823 511.373 104.823 511.542Z" fill="white"/>
<path d="M54.2542 474.102C54.2542 474.102 30.0268 445.22 32.7368 444.151C35.3926 443.137 56.9642 459.126 56.9642 459.126C56.9642 459.126 38.4278 416.339 42.1134 413.186C45.8532 410.033 65.3652 451.132 65.3652 451.132C65.3652 451.132 62.33 391.229 65.3652 390.553C68.4004 389.877 79.5114 450.456 79.5114 450.456C79.5114 450.456 95.9882 395.057 100.704 395.057C105.419 395.057 95.663 448.317 95.663 448.317C95.663 448.317 115.175 414.199 118.21 418.759C121.245 423.263 104.389 460.196 104.389 460.196C104.389 460.196 128.942 438.915 129.972 441.73C131.001 444.488 103.414 474.102 103.414 474.102H54.2542Z" fill="#455A64"/>
<path d="M50.8938 430.582C51.0564 430.526 55.3382 440.041 60.4872 451.864C65.582 463.687 69.647 473.37 69.4844 473.427C69.3218 473.539 64.9858 463.968 59.891 452.145C54.742 440.322 50.677 430.639 50.8938 430.582Z" fill="#263238"/>
<path d="M70.46 435.931C70.6226 435.875 71.3272 444.32 72.0318 454.679C72.7364 465.038 73.17 473.483 72.9532 473.483C72.7906 473.483 72.086 465.094 71.3814 454.735C70.6768 444.32 70.2432 435.931 70.46 435.931Z" fill="#263238"/>
<path d="M97.4515 409.076C97.4877 409.113 97.4335 409.338 97.2889 409.751C97.1444 410.277 96.9637 410.915 96.7469 411.666C96.2591 413.411 95.5545 415.775 94.7415 418.647C93.0613 424.558 90.7307 432.722 88.4001 441.786C86.0695 450.85 84.1183 459.07 82.7633 465.094C82.1129 467.966 81.5709 470.386 81.1915 472.188C81.0109 472.939 80.8483 473.577 80.7037 474.102C80.5953 474.553 80.5231 474.778 80.4869 474.778C80.4869 474.74 80.5231 474.496 80.5953 474.046C80.6676 473.52 80.776 472.882 80.9205 472.132C81.1915 470.443 81.6793 467.966 82.3297 464.982C83.5763 458.958 85.4191 450.681 87.7497 441.561C90.0803 432.497 92.4651 424.389 94.3079 418.534C95.2293 415.55 95.9881 413.242 96.5301 411.609C96.7831 410.859 96.9999 410.239 97.1805 409.751C97.3251 409.301 97.4154 409.076 97.4515 409.076Z" fill="#263238"/>
<path d="M109.105 439.984C109.267 440.041 104.552 447.36 98.5356 456.255C92.5736 465.151 87.5872 472.244 87.4246 472.132C87.3162 472.019 92.0316 464.756 97.9936 455.861C104.01 446.966 108.996 439.872 109.105 439.984Z" fill="#263238"/>
<path d="M62.4383 473.483C62.3841 473.539 61.5711 472.976 60.3245 471.907C59.0779 470.893 57.3977 469.317 55.7175 467.515C53.9831 465.714 52.5197 463.968 51.5441 462.617C50.5685 461.322 50.0265 460.478 50.0807 460.421C50.2433 460.309 52.7907 463.462 56.1511 467.065C59.5657 470.668 62.5467 473.314 62.4383 473.483Z" fill="#263238"/>
<path d="M77.1266 461.998C77.3434 461.998 77.7228 464.644 77.9938 467.966C78.319 471.287 78.3732 473.99 78.2106 473.99C77.9938 473.99 77.6144 471.344 77.3434 468.022C77.0724 464.7 76.964 462.054 77.1266 461.998Z" fill="#263238"/>
<path d="M49.3761 80.3964C54.6877 52.9783 81.0289 37.158 105.798 44.5896C130.026 51.8523 143.955 79.383 135.879 104.211C133.169 112.544 128.454 119.525 122.438 124.817C122.221 125.005 121.986 125.192 121.733 125.38C121.733 125.38 121.715 125.38 121.679 125.38C111.218 132.868 98.4271 136.471 85.8527 134.782C81.6251 134.219 77.5601 133.093 73.9829 131.348C55.6633 122.284 45.4195 101.002 49.3761 80.3964Z" fill="white"/>
<path d="M49.3762 80.3964C49.3762 80.3964 49.3581 80.6404 49.322 81.1283C49.2497 81.6538 49.1413 82.3857 48.9968 83.324C48.78 85.2382 48.5632 88.1095 48.7258 91.8253C48.9968 95.4848 49.6472 99.9888 51.3274 104.887C53.0618 109.785 55.7718 115.134 59.9994 120.088C61.0834 121.27 62.1674 122.509 63.414 123.635C64.6064 124.873 65.9614 125.887 67.3164 126.957C68.021 127.52 68.7798 127.97 69.5386 128.477L70.6226 129.209C71.002 129.434 71.4356 129.659 71.815 129.884C72.6099 130.297 73.4048 130.729 74.1998 131.179C75.0308 131.592 75.88 131.948 76.7472 132.249C83.739 134.895 91.9232 135.627 100.162 134.219C104.281 133.487 108.4 132.249 112.411 130.391C114.434 129.49 116.404 128.458 118.319 127.294C119.294 126.675 120.27 126.056 121.191 125.436C122.113 124.761 122.926 123.973 123.793 123.184C130.459 116.766 135.392 107.871 137.072 98.0183C138.047 93.1202 138.047 88.1095 137.397 83.2677C137.18 80.8468 136.53 78.5385 135.934 76.1739C135.572 75.0479 135.193 73.9219 134.795 72.7959C134.633 72.2329 134.362 71.7262 134.145 71.1632L133.44 69.5305C131.435 65.308 128.996 61.367 126.015 58.0453L124.931 56.8067L123.739 55.6244C122.926 54.8925 122.167 54.1043 121.3 53.4287C119.619 52.0775 117.939 50.67 116.151 49.6566C108.996 45.04 100.975 43.1258 93.5492 43.0695C91.7064 42.9569 89.9178 43.2384 88.1292 43.351C87.2078 43.4073 86.3406 43.6325 85.4734 43.8014C84.6062 43.9516 83.757 44.1205 82.926 44.3081C81.2458 44.8148 79.6198 45.2652 78.048 45.8282C77.2892 46.166 76.5304 46.4851 75.7716 46.7853C75.067 47.1231 74.3082 47.4046 73.6036 47.855C67.9126 50.7263 63.414 54.5547 60.0536 58.4394C58.4818 60.4662 56.91 62.3241 55.826 64.2383C55.5369 64.7263 55.2478 65.1954 54.9588 65.6458C54.6697 66.0962 54.4348 66.5466 54.2542 66.997C53.7844 67.8978 53.3508 68.7611 52.9534 69.5868C52.7908 70.0372 52.574 70.4313 52.4114 70.8254C52.2307 71.2008 52.0862 71.5949 51.9778 72.0077C51.6887 72.7584 51.4177 73.4715 51.1648 74.1471C50.6228 75.442 50.406 76.6243 50.135 77.5251C49.9182 78.4635 49.7375 79.1766 49.593 79.6645C49.4484 80.1525 49.3762 80.3964 49.3762 80.3964C49.3762 80.3964 49.4304 80.1525 49.5388 79.6645C49.6472 79.1766 49.8098 78.4635 50.0266 77.5251C50.2976 76.568 50.5144 75.3857 51.0022 74.0908C51.2551 73.4152 51.508 72.6833 51.761 71.8951C51.9055 71.5198 52.05 71.1257 52.1946 70.7128C52.3572 70.3187 52.574 69.9246 52.7908 69.5305C53.1521 68.6673 53.5676 67.7852 54.0374 66.8844C54.218 66.3965 54.4529 65.9461 54.742 65.5332C55.031 65.0453 55.3201 64.5761 55.6092 64.1257C56.6932 62.1552 58.2108 60.2973 59.8368 58.2142C63.1972 54.3295 67.6958 50.4448 73.441 47.4609C74.0914 47.0105 74.9044 46.729 75.609 46.3912C76.3678 46.091 77.1446 45.7719 77.9396 45.4341C79.5114 44.8148 81.1374 44.3644 82.8176 43.8577C83.6848 43.6701 84.552 43.5012 85.4192 43.351C86.2864 43.1821 87.1536 42.9569 88.075 42.9006C89.8636 42.788 91.7064 42.4502 93.6034 42.5628C101.083 42.6191 109.159 44.5333 116.422 49.1499C118.264 50.2196 119.945 51.6271 121.679 52.9783C122.492 53.6539 123.251 54.4984 124.064 55.2303L125.31 56.4126L126.394 57.7075C129.43 61.0292 131.923 65.0265 133.928 69.3053L134.633 70.938C134.904 71.501 135.121 72.0077 135.337 72.627C135.699 73.753 136.078 74.879 136.476 76.005C137.072 78.3696 137.722 80.7342 137.939 83.2114C138.644 88.0532 138.644 93.1765 137.668 98.1309C135.934 108.152 130.893 117.16 124.172 123.635C123.305 124.423 122.492 125.211 121.516 125.887C120.541 126.562 119.619 127.182 118.59 127.745C116.675 128.946 114.687 129.997 112.628 130.898C108.617 132.755 104.389 133.994 100.27 134.726C91.9232 136.133 83.6848 135.402 76.5846 132.755C75.7174 132.418 74.8682 132.042 74.0372 131.629C73.2061 131.179 72.3931 130.729 71.5982 130.278C71.2188 130.053 70.7852 129.828 70.4058 129.603L69.2676 128.871C68.563 128.364 67.75 127.857 67.0996 127.351C65.6904 126.225 64.3354 125.155 63.143 123.973C61.8422 122.847 60.7582 121.552 59.6742 120.313C55.4466 115.359 52.7366 109.954 51.0564 105C49.3762 100.045 48.7258 95.4848 48.509 91.8253C48.4006 88.1095 48.6174 85.2382 48.8884 83.324C49.0329 82.3857 49.1594 81.6538 49.2678 81.1283C49.34 80.6404 49.3762 80.3964 49.3762 80.3964Z" fill="#263238"/>
<path d="M127.478 134.726C127.587 134.726 127.533 133.994 127.858 132.812C128.183 131.629 128.942 129.884 130.676 128.589C132.302 127.238 135.066 126.506 137.668 127.52C138.969 128.026 140.215 128.927 141.083 130.222C142.004 131.461 142.492 133.037 142.546 134.726C142.492 136.359 142.004 137.991 141.083 139.23C140.215 140.525 138.969 141.426 137.668 141.932C135.066 142.946 132.302 142.214 130.676 140.863C128.942 139.568 128.183 137.822 127.858 136.64C127.533 135.458 127.587 134.726 127.478 134.726C127.478 134.726 127.478 134.895 127.478 135.233C127.424 135.57 127.478 136.077 127.641 136.696C127.858 137.935 128.617 139.793 130.405 141.257C132.085 142.664 135.012 143.565 137.885 142.495C139.294 141.989 140.649 140.975 141.57 139.624C142.546 138.273 143.142 136.528 143.142 134.726C143.142 132.924 142.546 131.179 141.57 129.828C140.649 128.477 139.294 127.463 137.885 126.957C135.012 125.887 132.085 126.731 130.405 128.195C128.617 129.659 127.858 131.517 127.641 132.755C127.478 133.375 127.424 133.881 127.478 134.219C127.478 134.557 127.478 134.726 127.478 134.726Z" fill="#263238"/>
<path d="M84.01 89.0103C84.01 91.3186 82.2214 93.2328 79.945 93.2328C77.6686 93.2328 75.88 91.3186 75.88 89.0103C75.88 86.6457 77.6686 84.7315 79.945 84.7315C82.2214 84.7315 84.01 86.6457 84.01 89.0103Z" fill="#263238"/>
<path d="M97.4515 89.0103C97.4515 91.3186 95.6087 93.2328 93.3323 93.2328C91.1101 93.2328 89.2673 91.3186 89.2673 89.0103C89.2673 86.6457 91.1101 84.7315 93.3323 84.7315C95.6087 84.7315 97.4515 86.6457 97.4515 89.0103Z" fill="#263238"/>
<path d="M110.839 89.0103C110.839 91.3186 108.996 93.2328 106.774 93.2328C104.498 93.2328 102.709 91.3186 102.709 89.0103C102.709 86.6457 104.498 84.7315 106.774 84.7315C108.996 84.7315 110.839 86.6457 110.839 89.0103Z" fill="#263238"/>
<path d="M499.453 395.676H397.232C391.27 395.676 386.5 390.666 386.5 384.529V353.958C386.5 347.821 391.27 342.811 397.232 342.811H499.453C505.361 342.811 510.185 347.821 510.185 353.958V384.529C510.185 390.666 505.361 395.676 499.453 395.676Z" fill="white"/>
<path d="M499.453 395.676C499.399 395.62 500.591 395.733 502.705 395.057C503.735 394.719 504.981 394.1 506.228 393.03C507.42 391.961 508.667 390.44 509.372 388.414C509.751 387.4 509.968 386.274 510.022 385.092C510.076 383.91 510.022 382.615 510.022 381.32C510.022 378.655 510.022 375.784 510.022 372.706C510.022 369.628 510.004 366.325 509.968 362.797C509.968 361.071 509.968 359.269 509.968 357.392C509.914 355.591 510.076 353.677 509.751 351.762C509.046 348.047 506.174 344.556 502.271 343.486C500.374 342.867 498.261 343.092 496.147 343.036C494.015 343.036 491.847 343.036 489.643 343.036C480.862 343.092 471.486 343.092 461.567 343.092C441.784 343.092 420.05 343.092 397.232 343.092C394.413 343.092 391.703 344.274 389.752 346.358C387.855 348.384 386.717 351.199 386.771 354.014C386.771 359.794 386.771 365.481 386.771 371.073C386.771 373.851 386.771 376.628 386.771 379.406C386.771 380.757 386.771 382.108 386.771 383.459C386.717 384.867 386.771 386.162 387.151 387.4C387.801 389.934 389.373 392.186 391.432 393.593C392.462 394.325 393.6 394.832 394.793 395.113C395.985 395.395 397.178 395.395 398.424 395.395C418.207 395.451 436.039 395.451 450.998 395.451C465.957 395.507 478.044 395.564 486.445 395.564C490.618 395.564 493.87 395.62 496.093 395.62C497.177 395.62 498.008 395.639 498.586 395.676C499.128 395.676 499.417 395.676 499.453 395.676C499.417 395.676 499.128 395.695 498.586 395.733C498.008 395.733 497.177 395.733 496.093 395.733C493.87 395.733 490.618 395.789 486.445 395.789C478.044 395.789 465.957 395.845 450.998 395.902C436.039 395.902 418.207 395.902 398.424 395.958C397.232 395.958 395.931 395.958 394.684 395.62C393.438 395.339 392.191 394.832 391.161 394.044C388.993 392.58 387.313 390.215 386.609 387.569C386.229 386.274 386.175 384.81 386.229 383.459C386.193 382.108 386.175 380.757 386.175 379.406C386.175 376.628 386.175 373.851 386.175 371.073C386.175 365.481 386.175 359.794 386.175 354.014C386.175 351.03 387.313 348.047 389.373 345.963C391.378 343.768 394.305 342.529 397.232 342.529C420.05 342.529 441.784 342.529 461.567 342.529C471.486 342.585 480.862 342.585 489.643 342.585C491.847 342.585 494.015 342.585 496.147 342.585C497.195 342.585 498.243 342.585 499.29 342.585C500.374 342.642 501.404 342.698 502.434 343.036C506.445 344.218 509.426 347.821 510.13 351.706C510.293 352.663 510.401 353.677 510.347 354.634C510.347 355.572 510.347 356.492 510.347 357.392C510.347 359.269 510.347 361.071 510.347 362.797C510.347 366.325 510.347 369.628 510.347 372.706C510.311 375.784 510.293 378.655 510.293 381.32C510.293 382.615 510.293 383.91 510.239 385.092C510.185 386.331 509.968 387.457 509.588 388.47C508.83 390.553 507.583 392.073 506.336 393.199C505.09 394.213 503.789 394.832 502.759 395.17C501.675 395.507 500.862 395.62 500.266 395.676C499.724 395.676 499.453 395.676 499.453 395.676Z" fill="#263238"/>
<path d="M488.776 372.706H432.137C430.023 372.706 428.343 370.961 428.343 368.765C428.343 366.569 430.023 364.824 432.137 364.824H488.776C490.889 364.824 492.57 366.569 492.57 368.765C492.57 370.961 490.889 372.706 488.776 372.706Z" fill="#E0E0E0"/>
<path d="M415.822 378.392H409.373C406.283 378.392 403.79 375.802 403.79 372.593V365.894C403.79 362.685 406.283 360.095 409.373 360.095H415.822C418.912 360.095 421.405 362.685 421.405 365.894V372.593C421.405 375.802 418.912 378.392 415.822 378.392Z" fill="#FF725E"/>
<path d="M406.5 369.497L408.289 367.695L411.703 370.848L417.394 364.88L419.074 366.738L411.432 374.395L406.5 369.497Z" fill="white"/>
<path d="M485.686 305.259H362.49C357.828 305.259 353.98 301.318 353.98 296.42V218.106C353.98 213.208 357.828 209.211 362.49 209.211H485.686C490.347 209.211 494.196 213.208 494.196 218.106V296.42C494.196 301.318 490.347 305.259 485.686 305.259Z" fill="white"/>
<path d="M485.686 305.259C485.686 305.259 485.777 305.259 485.957 305.259C486.12 305.202 486.445 305.202 486.824 305.146C487.583 305.033 488.721 304.752 489.968 303.964C491.269 303.176 492.678 301.768 493.491 299.685C494.412 297.602 494.033 294.843 494.087 291.916C494.033 280.093 494.033 262.921 493.979 241.752C493.979 236.46 493.979 230.924 493.979 225.144C493.979 223.68 493.979 222.216 493.979 220.752C493.925 219.289 494.087 217.768 493.816 216.361C493.22 213.49 491.16 210.9 488.396 209.943C486.987 209.38 485.524 209.492 483.952 209.492C482.434 209.492 480.899 209.492 479.345 209.492C476.273 209.492 473.13 209.492 469.914 209.492C463.518 209.492 456.96 209.492 450.239 209.492C423.248 209.492 393.655 209.492 362.544 209.492C360.647 209.549 358.804 210.224 357.341 211.407C355.877 212.645 354.847 214.39 354.468 216.305C354.251 217.205 354.251 218.163 354.251 219.176V222.16C354.251 224.149 354.251 226.12 354.251 228.071C354.251 235.953 354.251 243.704 354.251 251.323C354.251 266.581 354.251 281.275 354.251 295.294C354.197 297.039 354.36 298.728 355.118 300.248C355.823 301.712 356.961 303.007 358.37 303.851C359.725 304.696 361.297 305.033 362.923 305.033C364.549 305.033 366.157 305.033 367.747 305.033C374.143 305.033 380.339 305.033 386.338 305.033C398.316 305.033 409.481 305.033 419.671 305.033C440.05 305.09 456.527 305.146 467.963 305.146C473.654 305.202 478.044 305.202 481.079 305.202C482.561 305.202 483.699 305.221 484.494 305.259C485.253 305.259 485.686 305.259 485.686 305.259C485.686 305.259 485.253 305.315 484.494 305.315C483.699 305.315 482.561 305.315 481.079 305.315C478.044 305.315 473.654 305.371 467.963 305.371C456.527 305.428 440.05 305.428 419.671 305.484C409.481 305.484 398.316 305.484 386.338 305.484C380.339 305.521 374.143 305.54 367.747 305.54C366.157 305.54 364.549 305.54 362.923 305.54C361.297 305.596 359.563 305.202 358.099 304.302C356.636 303.401 355.389 302.05 354.631 300.473C353.872 298.897 353.655 296.983 353.709 295.294C353.709 281.275 353.709 266.581 353.709 251.323C353.709 243.704 353.709 235.953 353.709 228.071C353.709 226.12 353.709 224.149 353.709 222.16V219.176C353.709 218.219 353.709 217.149 353.926 216.136C354.305 214.165 355.444 212.307 356.961 210.956C358.533 209.661 360.538 208.929 362.544 208.929C393.655 208.929 423.248 208.929 450.239 208.929C456.96 208.967 463.518 208.986 469.914 208.986C473.13 208.986 476.273 208.986 479.345 208.986C480.899 208.986 482.434 208.986 483.952 208.986C485.469 208.986 487.095 208.873 488.505 209.492C491.486 210.506 493.654 213.264 494.25 216.248C494.521 217.825 494.358 219.289 494.412 220.752C494.412 222.216 494.412 223.68 494.412 225.144C494.412 230.924 494.412 236.46 494.412 241.752C494.358 262.921 494.304 280.093 494.304 291.916C494.304 293.417 494.304 294.824 494.304 296.138C494.304 297.433 494.087 298.672 493.654 299.741C492.786 301.881 491.323 303.288 490.022 304.076C488.721 304.865 487.583 305.146 486.824 305.202C486.066 305.315 485.686 305.259 485.686 305.259Z" fill="#263238"/>
<path d="M439.725 265.004C437.611 265.004 435.876 266.749 435.876 268.945V283.245C435.876 285.441 437.611 287.243 439.725 287.243C441.838 287.243 443.519 285.441 443.519 283.245V268.945C443.519 266.749 441.838 265.004 439.725 265.004Z" fill="#FF725E"/>
<path d="M375.714 261.795C373.601 261.795 371.866 263.54 371.866 265.736V283.245C371.866 285.441 373.601 287.243 375.714 287.243C377.828 287.243 379.563 285.441 379.563 283.245V265.736C379.563 263.54 377.828 261.795 375.714 261.795Z" fill="#FF725E"/>
<path d="M391.703 256.447C389.59 256.447 387.909 258.248 387.909 260.444V283.245C387.909 285.441 389.59 287.243 391.703 287.243C393.817 287.243 395.552 285.441 395.552 283.245V260.444C395.552 258.248 393.817 256.447 391.703 256.447Z" fill="#FF725E"/>
<path d="M407.692 258.136C405.579 258.136 403.898 259.937 403.898 262.133V283.245C403.898 285.441 405.579 287.243 407.692 287.243C409.806 287.243 411.541 285.441 411.541 283.245V262.133C411.541 259.937 409.806 258.136 407.692 258.136Z" fill="#FF725E"/>
<path d="M423.736 248.339C421.568 248.339 419.887 250.085 419.887 252.28V283.245C419.887 285.441 421.568 287.243 423.736 287.243C425.849 287.243 427.53 285.441 427.53 283.245V252.28C427.53 250.085 425.849 248.339 423.736 248.339Z" fill="#FF725E"/>
<path d="M455.714 248.508C453.6 248.508 451.865 250.31 451.865 252.506V283.245C451.865 285.441 453.6 287.243 455.714 287.243C457.827 287.243 459.562 285.441 459.562 283.245V252.506C459.562 250.31 457.827 248.508 455.714 248.508Z" fill="#FF725E"/>
<path d="M471.703 261.232C469.589 261.232 467.854 262.977 467.854 265.229V283.245C467.854 285.441 469.589 287.243 471.703 287.243C473.816 287.243 475.551 285.441 475.551 283.245V265.229C475.551 262.977 473.816 261.232 471.703 261.232Z" fill="#FF725E"/>
<path d="M402.652 232.069H373.113C371.324 232.069 369.915 230.605 369.915 228.747V228.071C369.915 226.213 371.324 224.75 373.113 224.75H402.652C404.44 224.75 405.85 226.213 405.85 228.071V228.747C405.85 230.605 404.44 232.069 402.652 232.069Z" fill="#E0E0E0"/>
<path d="M131.706 276.208H46.2868C43.5768 276.208 41.3546 273.956 41.3546 271.084V193.897C41.3546 190.575 43.9562 187.873 47.154 187.873H130.785C133.982 187.873 136.638 190.575 136.638 193.897V271.084C136.638 273.956 134.416 276.208 131.706 276.208Z" fill="white"/>
<path d="M136.638 208.029H41.3546V193.897C41.3546 190.575 43.9562 187.873 47.154 187.873H130.785C133.982 187.873 136.638 190.575 136.638 193.897V208.029Z" fill="#E0E0E0"/>
<path d="M56.9642 199.02C56.9642 201.047 55.3924 202.68 53.4954 202.68C51.5442 202.68 50.0266 201.047 50.0266 199.02C50.0266 196.937 51.5442 195.305 53.4954 195.305C55.3924 195.305 56.9642 196.937 56.9642 199.02Z" fill="white"/>
<path d="M67.5874 199.02C67.5874 201.047 66.0698 202.68 64.1186 202.68C62.2216 202.68 60.6498 201.047 60.6498 199.02C60.6498 196.937 62.2216 195.305 64.1186 195.305C66.0698 195.305 67.5874 196.937 67.5874 199.02Z" fill="white"/>
<path d="M78.2649 199.02C78.2649 201.047 76.6931 202.68 74.7961 202.68C72.8449 202.68 71.3273 201.047 71.3273 199.02C71.3273 196.937 72.8449 195.305 74.7961 195.305C76.6931 195.305 78.2649 196.937 78.2649 199.02Z" fill="white"/>
<path d="M113.061 265.961H64.8774C61.6254 265.961 58.9696 263.202 58.9696 259.768V223.961C58.9696 220.527 61.6254 217.768 64.8774 217.768H113.061C116.313 217.768 119.023 220.527 119.023 223.961V259.768C119.023 263.202 116.313 265.961 113.061 265.961Z" fill="#FF725E"/>
<path d="M82.2214 241.414V233.983C82.2214 232.181 84.1726 231.055 85.6902 231.956L91.869 235.616L97.9936 239.331C99.5112 240.232 99.5112 242.54 97.9936 243.441L91.869 247.157L85.6902 250.873C84.1726 251.774 82.2214 250.591 82.2214 248.79V241.414Z" fill="white"/>
<path d="M131.706 276.208C131.706 276.208 131.977 276.208 132.573 276.095C133.169 275.983 134.037 275.701 134.904 274.913C135.771 274.125 136.584 272.717 136.53 270.972C136.53 269.17 136.53 267.125 136.53 264.835C136.476 255.546 136.476 242.203 136.421 225.707C136.421 217.431 136.421 208.366 136.367 198.683C136.367 197.482 136.367 196.262 136.367 195.023C136.367 194.404 136.421 193.785 136.313 193.165C136.259 192.602 136.096 191.983 135.825 191.476C135.392 190.35 134.524 189.449 133.495 188.83C132.989 188.567 132.447 188.361 131.869 188.211C131.272 188.098 130.676 188.155 130.026 188.098C125.039 188.136 119.927 188.155 114.687 188.155C104.172 188.155 93.1156 188.155 81.6794 188.155C75.9703 188.155 70.1528 188.155 64.227 188.155C61.3002 188.155 58.3372 188.155 55.3382 188.155C53.8206 188.155 52.321 188.155 50.8396 188.155H48.5632C47.8044 188.155 47.0456 188.098 46.341 188.211C44.8776 188.436 43.5768 189.281 42.7096 190.463C42.276 191.082 42.005 191.758 41.7882 192.49C41.6256 193.222 41.6256 193.953 41.6256 194.742C41.6256 197.857 41.6256 200.935 41.6256 203.975C41.6256 210.13 41.6256 216.173 41.6256 222.103C41.6256 233.983 41.6256 245.468 41.6256 256.39C41.5894 259.13 41.5714 261.833 41.5714 264.497C41.5714 265.811 41.5714 267.125 41.5714 268.438C41.5714 269.076 41.5714 269.733 41.5714 270.409C41.5714 271.084 41.5714 271.647 41.734 272.267C42.005 273.449 42.7638 274.519 43.7394 275.194C44.2272 275.532 44.7692 275.757 45.3112 275.87C45.8532 275.983 46.4494 275.983 47.0998 275.983C49.4846 275.983 51.8513 275.983 54.2 275.983C63.5766 275.983 72.2486 276.039 80.216 276.039C96.0966 276.039 108.942 276.095 117.885 276.095C122.329 276.151 125.744 276.151 128.129 276.151C129.285 276.189 130.17 276.208 130.785 276.208C131.363 276.208 131.67 276.208 131.706 276.208C131.67 276.245 131.363 276.264 130.785 276.264C130.17 276.264 129.285 276.264 128.129 276.264C125.744 276.32 122.329 276.32 117.885 276.32C108.942 276.377 96.0966 276.377 80.216 276.433C72.2486 276.433 63.5766 276.489 54.2 276.489C51.8513 276.489 49.4846 276.489 47.0998 276.489C46.5036 276.489 45.8532 276.489 45.2028 276.377C44.6066 276.264 44.0104 275.983 43.4684 275.588C42.3844 274.857 41.5714 273.731 41.2462 272.379C41.0836 271.76 41.0836 271.028 41.0836 270.409C41.0836 269.733 41.0836 269.076 41.0836 268.438C41.0836 267.125 41.0836 265.811 41.0836 264.497C41.0836 261.833 41.0836 259.13 41.0836 256.39C41.0836 245.468 41.0836 233.983 41.0836 222.103C41.0836 216.173 41.0836 210.13 41.0836 203.975C41.0836 200.935 41.0836 197.857 41.0836 194.742C41.0294 193.953 41.0294 193.109 41.2462 192.321C41.463 191.533 41.7882 190.801 42.276 190.125C43.1974 188.83 44.6608 187.873 46.2326 187.648C47.0456 187.535 47.8044 187.592 48.5632 187.592H50.8396C52.321 187.592 53.8206 187.592 55.3382 187.592C58.3372 187.592 61.3002 187.592 64.227 187.592C70.1528 187.592 75.9703 187.592 81.6794 187.592C93.1156 187.592 104.172 187.592 114.687 187.592C119.927 187.592 125.039 187.592 130.026 187.592C130.622 187.592 131.327 187.592 131.923 187.704C132.573 187.854 133.169 188.08 133.711 188.38C134.85 189.055 135.771 190.069 136.259 191.251C136.53 191.87 136.747 192.49 136.801 193.109C136.855 193.785 136.855 194.404 136.855 195.023C136.855 196.262 136.855 197.482 136.855 198.683C136.855 208.366 136.801 217.431 136.801 225.707C136.801 242.203 136.747 255.546 136.747 264.835C136.71 267.125 136.692 269.17 136.692 270.972C136.747 272.773 135.879 274.181 134.958 274.969C134.091 275.814 133.169 276.095 132.573 276.151C132.284 276.227 132.067 276.245 131.923 276.208C131.778 276.208 131.706 276.208 131.706 276.208Z" fill="#263238"/>
<path d="M430.294 173.066H321.189C318.479 173.066 316.257 170.758 316.257 167.887V91.3749C316.257 88.0532 318.859 85.3508 322.056 85.3508H429.427C432.624 85.3508 435.226 88.0532 435.226 91.3749V167.887C435.226 170.758 433.004 173.066 430.294 173.066Z" fill="white"/>
<path d="M435.226 105.394H316.257V91.3749C316.257 88.0532 318.859 85.3508 322.056 85.3508H429.427C432.624 85.3508 435.226 88.0532 435.226 91.3749V105.394Z" fill="#E0E0E0"/>
<path d="M332.083 96.3856C332.083 98.4124 330.512 100.045 328.56 100.045C326.609 100.045 325.037 98.4124 325.037 96.3856C325.037 94.4151 326.609 92.7261 328.56 92.7261C330.512 92.7261 332.083 94.4151 332.083 96.3856Z" fill="white"/>
<path d="M342.869 96.3856C342.869 98.4124 341.297 100.045 339.346 100.045C337.449 100.045 335.823 98.4124 335.823 96.3856C335.823 94.4151 337.449 92.7261 339.346 92.7261C341.297 92.7261 342.869 94.4151 342.869 96.3856Z" fill="white"/>
<path d="M353.709 96.3856C353.709 98.4124 352.137 100.045 350.186 100.045C348.235 100.045 346.663 98.4124 346.663 96.3856C346.663 94.4151 348.235 92.7261 350.186 92.7261C352.137 92.7261 353.709 94.4151 353.709 96.3856Z" fill="white"/>
<path d="M365.579 161.3H331.216C328.831 161.3 326.88 159.329 326.88 156.796V121.158C326.88 118.68 328.831 116.654 331.216 116.654H365.579C367.964 116.654 369.861 118.68 369.861 121.158V156.796C369.861 159.329 367.964 161.3 365.579 161.3Z" fill="#FF725E"/>
<path d="M422.76 125.887H382.923C381.731 125.887 380.701 124.817 380.701 123.579C380.701 122.284 381.731 121.27 382.923 121.27H422.76C424.007 121.27 424.982 122.284 424.982 123.579C424.982 124.817 424.007 125.887 422.76 125.887Z" fill="#E0E0E0"/>
<path d="M422.76 136.415H382.923C381.731 136.415 380.701 135.402 380.701 134.107C380.701 132.868 381.731 131.798 382.923 131.798H422.76C424.007 131.798 424.982 132.868 424.982 134.107C424.982 135.402 424.007 136.415 422.76 136.415Z" fill="#E0E0E0"/>
<path d="M422.76 146.999H382.923C381.731 146.999 380.701 145.93 380.701 144.691C380.701 143.396 381.731 142.383 382.923 142.383H422.76C424.007 142.383 424.982 143.396 424.982 144.691C424.982 145.93 424.007 146.999 422.76 146.999Z" fill="#E0E0E0"/>
<path d="M403.248 157.527H382.923C381.731 157.527 380.701 156.514 380.701 155.219C380.701 153.924 381.731 152.911 382.923 152.911H403.248C404.44 152.911 405.47 153.924 405.47 155.219C405.47 156.514 404.44 157.527 403.248 157.527Z" fill="#E0E0E0"/>
<path d="M430.294 173.066C430.294 173.01 430.673 173.066 431.324 172.897C431.974 172.728 432.95 172.391 433.871 171.377C434.305 170.871 434.684 170.195 434.955 169.407C435.226 168.619 435.172 167.661 435.172 166.704C435.136 164.678 435.118 162.35 435.118 159.723C435.118 149.251 435.063 134.163 435.063 115.471C435.027 110.817 435.009 105.938 435.009 100.833C435.009 98.281 435.009 95.6725 435.009 93.0076C435.009 91.6564 435.118 90.3615 434.576 89.1792C434.088 87.9406 433.221 86.9272 432.082 86.3079C431.54 85.9701 430.944 85.7449 430.294 85.6886C429.698 85.576 428.993 85.576 428.343 85.576C427.006 85.576 425.651 85.576 424.278 85.576C421.531 85.576 418.749 85.576 415.931 85.576C410.294 85.576 404.513 85.5948 398.587 85.6323C386.663 85.6323 374.197 85.6323 361.243 85.6323C354.775 85.6323 348.199 85.6323 341.514 85.6323C338.19 85.6323 334.83 85.6323 331.433 85.6323C329.735 85.6323 328.036 85.6323 326.338 85.6323H323.791C322.924 85.6323 322.056 85.576 321.243 85.6886C319.617 85.9138 318.154 86.9835 317.341 88.4473C316.907 89.1792 316.636 89.9674 316.582 90.8119C316.528 91.6564 316.528 92.5572 316.528 93.4017C316.528 96.9298 316.528 100.439 316.528 103.93C316.528 110.873 316.528 117.705 316.528 124.423C316.528 137.879 316.528 150.828 316.528 163.214C316.691 166.198 315.769 169.688 318.154 171.602C318.642 172.053 319.292 172.391 319.943 172.616C320.593 172.785 321.298 172.785 322.002 172.785C323.448 172.785 324.875 172.785 326.284 172.785C331.921 172.785 337.377 172.785 342.652 172.785C353.221 172.785 363.086 172.841 372.083 172.841C390.077 172.897 404.603 172.897 414.684 172.954C419.725 172.954 423.627 172.954 426.283 173.01C427.584 173.01 428.577 173.01 429.264 173.01C429.951 173.01 430.294 173.029 430.294 173.066C430.294 173.066 429.951 173.066 429.264 173.066C428.577 173.066 427.584 173.085 426.283 173.123C423.627 173.123 419.725 173.123 414.684 173.179C404.603 173.179 390.077 173.235 372.083 173.235C363.086 173.235 353.221 173.291 342.652 173.291C337.377 173.291 331.921 173.291 326.284 173.291C324.875 173.291 323.448 173.291 322.002 173.291C321.298 173.291 320.539 173.348 319.834 173.123C319.075 172.897 318.371 172.503 317.829 171.997C316.636 170.983 315.932 169.407 315.986 167.774C315.986 166.273 315.986 164.753 315.986 163.214C315.986 150.828 315.986 137.879 315.986 124.423C315.986 117.705 315.986 110.873 315.986 103.93C315.986 100.439 315.986 96.9298 315.986 93.4017C315.986 92.5572 315.932 91.7127 315.986 90.7556C316.094 89.8548 316.365 88.954 316.853 88.1095C317.72 86.5331 319.346 85.4071 321.135 85.1256C322.056 85.013 322.924 85.0693 323.791 85.0693H326.338C328.036 85.0693 329.735 85.0693 331.433 85.0693C334.83 85.0693 338.19 85.0693 341.514 85.0693C348.199 85.0693 354.775 85.0693 361.243 85.0693C374.197 85.0693 386.663 85.0693 398.587 85.0693C404.513 85.0693 410.294 85.0693 415.931 85.0693C418.749 85.0693 421.531 85.0693 424.278 85.0693C425.651 85.0693 427.006 85.0693 428.343 85.0693C428.993 85.0693 429.698 85.0693 430.402 85.1819C431.053 85.2945 431.703 85.5197 432.353 85.8575C433.546 86.5331 434.467 87.6591 435.009 88.954C435.28 89.6296 435.389 90.3052 435.443 90.9808C435.497 91.7127 435.443 92.332 435.443 93.0076C435.443 95.6725 435.443 98.281 435.443 100.833C435.443 105.938 435.443 110.817 435.443 115.471C435.389 134.163 435.389 149.251 435.334 159.723C435.334 162.35 435.334 164.678 435.334 166.704C435.334 167.661 435.334 168.619 435.063 169.463C434.847 170.308 434.413 170.927 433.925 171.434C433.004 172.447 431.974 172.841 431.324 172.954C430.673 173.066 430.294 173.066 430.294 173.066Z" fill="#263238"/>
<g opacity="0.3">
<path d="M326.88 148.632V156.964C326.88 159.385 328.777 161.299 331.054 161.299H365.633C367.964 161.299 369.861 159.329 369.861 156.908V143.509L359.834 133.825C358.696 132.699 356.907 132.812 355.877 134.05L348.072 143.396L340.322 139.568C338.913 138.892 337.232 139.117 336.094 140.187L326.88 148.632Z" fill="black"/>
</g>
<g opacity="0.3">
<path d="M350.24 128.477C350.24 130.729 348.506 132.53 346.338 132.53C344.224 132.53 342.49 130.729 342.49 128.477C342.49 126.281 344.224 124.479 346.338 124.479C348.506 124.479 350.24 126.281 350.24 128.477Z" fill="black"/>
</g>
<path d="M181.787 230.211C184.659 227.621 188.779 226.889 191.705 224.356C194.686 221.878 196.096 217.768 196.258 213.827C196.475 209.886 195.554 205.945 194.632 202.117L226.122 243.216C223.629 247.776 220.919 252.337 217.017 255.602C213.06 258.867 207.64 260.613 202.925 258.867C198.209 257.066 194.957 250.985 197.18 246.313C192.898 250.366 185.581 250.479 181.407 246.256C177.288 242.034 177.397 234.152 181.787 230.211Z" fill="#263238"/>
<path d="M272.897 110.123C280.539 115.922 281.786 121.664 282.111 124.761C282.165 125.718 282.057 126.844 281.19 127.125C280.81 127.294 280.377 127.125 279.943 127.013C271.416 124.31 262.888 121.627 254.361 118.962" fill="#263238"/>
<path d="M202.22 213.771C196.475 203.018 190.73 192.208 186.827 180.61C182.925 169.069 180.92 156.57 182.817 144.41C183.088 142.608 186.177 130.053 187.966 129.884C189.212 129.715 188.02 141.088 188.887 142.101C196.963 151.616 201.028 164.227 202.437 176.838C203.846 189.45 203.467 201.16 202.22 213.771Z" fill="#263238"/>
<path d="M214.361 278.91L192.356 168.056C185.689 138.048 196.909 108.997 225.96 102.916L228.724 102.522C256.041 98.4687 281.786 116.935 287.856 144.916C293.493 170.927 299.401 199.809 301.135 213.94C304.767 243.216 277.233 251.943 277.233 251.943C277.179 251.943 282.382 281.5 283.954 290.001L241.407 295.631L231.163 296.588L214.361 278.91Z" fill="#FFBF9D"/>
<path d="M277.233 251.942C277.233 251.942 259.672 255.658 239.076 246.087C239.076 246.087 250.892 266.749 278.588 259.993L277.233 251.942Z" fill="#FF9A6C"/>
<path d="M282.653 173.46C283.032 175.656 281.569 177.795 279.347 178.246C277.179 178.696 275.065 177.289 274.686 175.093C274.306 172.897 275.824 170.758 277.992 170.308C280.214 169.857 282.274 171.265 282.653 173.46Z" fill="#263238"/>
<path d="M283.629 158.71C283.195 159.329 279.835 157.415 275.499 158.09C271.163 158.653 268.29 161.468 267.748 160.962C267.477 160.737 267.856 159.723 269.103 158.428C270.35 157.19 272.518 155.838 275.228 155.501C277.883 155.107 280.322 155.782 281.786 156.627C283.249 157.527 283.845 158.428 283.629 158.71Z" fill="#263238"/>
<path d="M245.363 178.921C245.743 181.117 244.279 183.257 242.057 183.707C239.889 184.157 237.775 182.694 237.396 180.498C237.017 178.358 238.48 176.163 240.702 175.712C242.924 175.262 244.984 176.726 245.363 178.921Z" fill="#263238"/>
<path d="M241.353 166.029C240.919 166.648 237.559 164.734 233.223 165.353C228.887 165.972 226.014 168.731 225.472 168.281C225.201 168.056 225.58 166.986 226.827 165.747C228.074 164.509 230.242 163.157 232.952 162.763C235.662 162.369 238.046 163.101 239.51 163.946C240.973 164.79 241.569 165.747 241.353 166.029Z" fill="#263238"/>
<path d="M261.569 198.232C261.515 198.007 264.171 197.106 268.398 195.924C269.537 195.642 270.512 195.248 270.621 194.404C270.729 193.559 270.133 192.377 269.428 191.138C267.983 188.511 266.483 185.752 264.93 182.862C258.697 171.096 254.035 161.356 254.469 161.074C254.957 160.849 260.377 170.195 266.61 181.962C268.127 184.852 269.573 187.629 270.946 190.294C271.542 191.533 272.463 192.884 272.138 194.685C271.921 195.586 271.217 196.318 270.512 196.656C269.862 196.994 269.266 197.106 268.724 197.219C264.333 198.063 261.623 198.514 261.569 198.232Z" fill="#263238"/>
<path d="M240.811 151.728C240.377 152.967 236.041 152.404 230.892 153.023C225.743 153.53 221.624 155.106 220.919 153.98C220.648 153.474 221.353 152.291 223.033 151.109C224.713 149.927 227.315 148.801 230.404 148.463C233.494 148.069 236.312 148.632 238.155 149.42C240.052 150.208 241.027 151.165 240.811 151.728Z" fill="#263238"/>
<path d="M283.195 151.334C282.436 152.517 278.751 152.01 274.523 152.686C270.295 153.192 266.827 154.656 265.851 153.699C265.417 153.249 265.797 152.123 267.206 150.884C268.615 149.702 271.054 148.463 273.981 148.069C276.908 147.675 279.564 148.238 281.19 149.026C282.87 149.814 283.52 150.771 283.195 151.334Z" fill="#263238"/>
<path d="M197.613 189.337C197.071 189.224 177.451 186.24 180.811 206.171C184.117 226.101 202.708 218.5 202.6 217.881C202.545 217.318 197.613 189.337 197.613 189.337Z" fill="#FFBF9D"/>
<path d="M195.499 211.407C195.391 211.35 195.228 211.744 194.686 212.082C194.199 212.476 193.277 212.814 192.193 212.589C190.025 212.195 187.803 209.155 187.098 205.608C186.719 203.806 186.827 202.004 187.207 200.484C187.532 198.908 188.291 197.726 189.266 197.332C190.242 196.937 191.055 197.444 191.38 197.951C191.76 198.458 191.651 198.852 191.76 198.908C191.868 198.908 192.139 198.458 191.868 197.669C191.705 197.332 191.38 196.881 190.892 196.6C190.35 196.262 189.646 196.206 188.941 196.431C187.478 196.769 186.394 198.458 185.96 200.147C185.472 201.836 185.364 203.862 185.743 205.889C186.556 209.886 189.158 213.264 192.085 213.602C193.494 213.715 194.524 213.096 195.012 212.533C195.554 211.913 195.554 211.463 195.499 211.407Z" fill="#FF9A6C"/>
<path d="M269.645 114.345C272.409 111.981 261.298 103.367 253.06 101.227C240.594 97.962 222.437 98.0183 212.356 103.142C200.269 109.335 190.838 117.949 186.556 131.235C182.275 144.522 182.383 159.048 185.201 172.785C186.014 176.951 187.207 181.286 190.025 184.383C193.44 188.267 197.667 189.731 199.944 196.206C200.648 198.289 201.245 200.541 202.979 201.892C207.152 205.045 210.838 200.597 212.139 196.6C214.957 187.986 213.819 178.64 212.572 169.632C211.705 163.27 210.838 156.739 208.02 150.997C206.502 147.844 204.442 144.973 203.087 141.763C201.732 138.554 201.19 134.726 202.708 131.573C202.979 131.066 203.413 130.447 203.955 129.659C208.507 123.691 215.824 120.764 223.087 122.002C234.523 123.86 253.981 126.281 258.1 121.552C264.062 114.796 265.092 110.911 265.092 110.911L269.645 114.345Z" fill="#263238"/>
<path d="M248.561 203.581C249.212 203.412 250.079 207.972 254.415 210.506C258.751 212.983 263.358 211.575 263.466 212.195C263.575 212.476 262.599 213.264 260.648 213.715C258.697 214.165 255.77 214.109 253.114 212.532C250.458 211.012 248.995 208.591 248.507 206.734C247.965 204.876 248.29 203.637 248.561 203.581Z" fill="#263238"/>
<path d="M184.172 191.082C183.738 190.801 183.196 190.801 182.817 190.519C156.259 172.503 170.405 147.562 169.538 140.919C168.291 131.629 159.836 145.254 156.313 133.431C151.706 117.78 166.936 107.815 185.96 97.0612C193.928 92.5572 214.524 87.7154 233.494 88.2221C250.404 88.6725 263.358 98.5813 271.108 106.632C271.108 106.632 275.282 107.815 276.474 109.391C280.322 114.402 279.401 116.879 279.401 116.879C279.401 116.879 240.052 104.324 214.415 135.57C188.779 166.817 198.101 187.761 190.188 189.562L184.172 191.082Z" fill="#455A64"/>
<path d="M195.012 109.391C195.012 109.447 194.47 109.785 193.548 110.404C193.06 110.686 192.464 111.08 191.814 111.53C191.163 112.037 190.35 112.544 189.592 113.163C187.966 114.402 186.123 115.978 184.172 117.836C182.275 119.75 180.323 122.002 178.481 124.536C176.638 127.069 175.066 129.603 173.819 132.024C172.573 134.444 171.597 136.696 170.893 138.667C170.513 139.624 170.242 140.525 169.971 141.313C169.7 142.101 169.538 142.777 169.375 143.34C169.05 144.466 168.887 145.085 168.833 145.085C168.833 145.085 168.941 144.41 169.158 143.284C169.267 142.721 169.429 141.989 169.7 141.2C169.917 140.412 170.134 139.511 170.513 138.498C171.164 136.528 172.139 134.219 173.332 131.798C174.632 129.321 176.15 126.731 177.993 124.142C179.89 121.608 181.895 119.356 183.846 117.442C185.798 115.584 187.695 114.008 189.375 112.825C190.188 112.206 190.947 111.699 191.651 111.305C192.302 110.855 192.898 110.461 193.44 110.235C194.415 109.672 194.957 109.391 195.012 109.391Z" fill="#263238"/>
<path d="M272.192 106.97C272.192 107.008 272.066 106.989 271.813 106.914C271.56 106.876 271.217 106.801 270.783 106.689C269.916 106.463 268.561 106.182 266.827 105.844C265.092 105.563 262.924 105.168 260.431 104.943C257.938 104.662 255.119 104.493 251.922 104.605C245.634 104.774 238.155 105.957 230.35 108.997C226.448 110.517 222.491 112.487 218.589 114.908C214.74 117.329 210.946 120.257 207.423 123.691C203.955 127.125 200.865 130.785 198.318 134.67C195.77 138.611 193.711 142.608 192.031 146.605C188.724 154.544 187.044 162.2 185.906 168.619C184.822 175.093 184.334 180.385 184.009 184.045C183.864 185.846 183.756 187.254 183.684 188.267C183.648 188.718 183.63 189.074 183.63 189.337C183.593 189.6 183.575 189.731 183.575 189.731C183.539 189.731 183.539 189.6 183.575 189.337C183.575 189.074 183.575 188.718 183.575 188.267C183.63 187.31 183.684 185.846 183.792 184.045C184.063 180.385 184.443 175.037 185.527 168.562C186.611 162.088 188.237 154.375 191.543 146.38C193.223 142.383 195.283 138.329 197.83 134.388C200.432 130.447 203.521 126.731 207.044 123.241C210.567 119.806 214.415 116.879 218.318 114.402C222.22 111.981 226.231 110.01 230.133 108.49C238.046 105.45 245.634 104.324 251.922 104.211C255.119 104.155 257.992 104.324 260.485 104.605C262.978 104.887 265.092 105.281 266.881 105.619C268.615 106.013 269.916 106.351 270.837 106.576C271.271 106.689 271.614 106.782 271.867 106.857C272.084 106.933 272.192 106.97 272.192 106.97Z" fill="#263238"/>
<path d="M194.741 178.865C194.795 179.034 192.41 179.822 189.429 179.203C186.502 178.64 184.551 176.951 184.659 176.838C184.768 176.726 186.719 178.077 189.537 178.64C192.356 179.203 194.686 178.696 194.741 178.865Z" fill="#263238"/>
<path d="M201.678 159.329C201.678 159.442 200.919 159.498 199.673 159.273C198.426 159.104 196.692 158.597 194.957 157.64C193.277 156.683 191.922 155.444 191.055 154.487C190.188 153.53 189.808 152.798 189.863 152.742C189.971 152.629 191.868 155.275 195.228 157.077C198.589 158.991 201.732 159.16 201.678 159.329Z" fill="#263238"/>
<path d="M215.174 134.332C215.066 134.444 213.44 131.855 210.675 129.546C207.911 127.125 205.147 126.056 205.255 125.887C205.255 125.718 208.182 126.619 211.055 129.096C213.873 131.461 215.337 134.276 215.174 134.332Z" fill="#263238"/>
<path d="M230.946 122.002C230.784 122.058 230.025 119.412 228.182 116.597C226.393 113.726 224.28 111.981 224.388 111.868C224.496 111.699 226.773 113.332 228.67 116.26C230.513 119.187 231.109 122.002 230.946 122.002Z" fill="#263238"/>
<path d="M256.745 115.302C256.529 115.302 256.908 112.431 255.445 109.335C254.035 106.238 251.651 104.718 251.759 104.605C251.813 104.549 252.464 104.831 253.331 105.563C254.198 106.294 255.228 107.477 255.932 109.109C256.691 110.686 256.962 112.319 256.962 113.445C256.962 114.627 256.8 115.302 256.745 115.302Z" fill="#263238"/>
<path d="M273.222 116.203C273.005 116.203 273.385 114.008 272.843 111.418C272.355 108.884 271.271 107.026 271.434 106.914C271.488 106.801 272.897 108.603 273.439 111.305C273.927 114.064 273.331 116.26 273.222 116.203Z" fill="#263238"/>
<path d="M248.561 295.744C248.507 295.744 248.561 294.843 248.507 293.267C248.453 291.69 248.236 289.382 247.64 286.623C247.044 283.808 246.068 280.599 244.659 277.109C243.304 273.618 241.569 269.902 239.835 265.905C238.209 262.133 236.746 258.417 235.824 254.87L235.77 254.701L235.987 254.589C238.48 253.237 240.485 251.38 241.949 249.522L242.057 249.353L242.22 249.465C244.171 250.535 246.122 250.929 247.748 250.929H247.802L247.857 250.985C248.67 252.506 249.537 253.575 250.133 254.307C250.729 255.039 251.109 255.377 251.054 255.433C251.054 255.433 250.964 255.358 250.783 255.208C250.603 255.02 250.35 254.758 250.025 254.42C249.374 253.744 248.453 252.674 247.586 251.154L247.748 251.267C246.068 251.267 244.063 250.985 242.003 249.859L242.274 249.803C240.811 251.717 238.805 253.632 236.204 255.039L236.366 254.758C237.288 258.192 238.697 261.908 240.377 265.68C242.057 269.621 243.792 273.393 245.147 276.94C246.502 280.43 247.477 283.696 248.019 286.511C248.615 289.326 248.724 291.69 248.724 293.267C248.724 294.055 248.706 294.674 248.67 295.125C248.633 295.537 248.597 295.744 248.561 295.744Z" fill="#FF9A6C"/>
<path d="M162.221 298.559L206.448 271.028C206.448 271.028 240.702 294.505 263.087 285.891C278.154 280.093 278.154 258.811 278.154 258.811L321.569 258.98L359.996 381.207L369.861 527.475L177.559 527.418L169.809 355.816L162.221 298.559Z" fill="#FF725E"/>
<g opacity="0.3">
<path d="M175.771 491.612C189.212 503.435 206.773 509.234 224.28 511.148C241.786 513.006 259.401 511.204 276.908 509.459C307.151 506.419 338.045 507.263 368.289 504.167C367.422 496.341 366.663 476.748 365.796 468.866L175.771 482.998V491.612Z" fill="black"/>
</g>
<path d="M159.998 432.553C159.998 432.553 155.879 430.47 153.82 432.609C151.706 434.749 150.242 437.958 150.242 437.958C150.242 437.958 143.576 435.875 140.757 441.617C140.757 441.617 135.771 444.939 138.752 451.357C138.752 451.357 133.386 459.127 137.668 465.826C138.644 467.346 139.402 467.966 139.402 467.966C139.402 467.966 141.408 476.017 144.064 477.368C146.774 478.719 156.313 481.759 156.638 477.199C156.963 472.638 155.283 473.089 155.283 473.089C155.283 473.089 166.557 479.451 171.597 484.124C176.584 488.797 189.754 495.722 197.884 495.722C205.96 495.722 202.491 477.593 202.491 477.593L159.998 432.553Z" fill="#FFBF9D"/>
<path d="M341.243 346.583C340.701 349.342 340.268 364.205 340.268 364.205L349.644 425.853C331.162 429.794 240.16 448.993 240.16 448.993L231.705 495.496C231.705 495.496 374.793 492.738 390.728 477.255C406.663 461.829 398.587 399.336 398.587 393.256C398.587 387.231 394.63 347.033 394.63 347.033L341.243 346.583Z" fill="#FFBF9D"/>
<path d="M142.329 452.371C142.329 452.314 142.817 452.539 143.738 452.99C144.786 453.44 146.087 454.041 147.641 454.791C149.321 455.58 151.218 456.537 153.386 457.606C153.892 457.869 154.434 458.132 155.012 458.395C155.301 458.545 155.59 458.676 155.879 458.789C156.15 458.958 156.53 459.127 156.692 459.577C156.801 459.802 156.801 460.084 156.692 460.309C156.638 460.534 156.475 460.703 156.259 460.816C155.933 461.041 155.554 461.097 155.229 461.153C154.524 461.266 153.82 461.266 153.169 461.21C150.351 461.041 147.858 460.084 145.527 459.69C144.389 459.521 143.251 459.408 142.275 459.69C141.299 459.971 140.595 460.647 140.161 461.435C139.24 462.955 139.294 464.588 139.294 465.601C139.348 466.614 139.348 467.177 139.348 467.234C139.294 467.234 139.186 466.671 139.077 465.601C139.023 464.588 138.915 462.955 139.836 461.21C140.27 460.365 141.083 459.521 142.167 459.239C143.251 458.901 144.443 458.958 145.635 459.183C147.966 459.521 150.513 460.478 153.169 460.647C153.874 460.647 154.524 460.647 155.175 460.59C155.771 460.534 156.421 460.196 156.204 459.802C156.042 459.408 155.283 459.183 154.795 458.901C154.217 458.601 153.657 458.32 153.115 458.057C151.055 456.987 149.104 456.03 147.478 455.186C145.924 454.36 144.66 453.684 143.684 453.159C142.763 452.708 142.275 452.427 142.329 452.371Z" fill="#FF9A6C"/>
<path d="M160.215 448.993C160.215 449.049 159.185 448.373 157.559 447.416C155.879 446.459 153.494 445.277 150.784 444.263C148.074 443.25 145.473 442.631 143.63 442.293C141.733 441.955 140.595 441.786 140.595 441.73C140.595 441.673 141.787 441.617 143.684 441.899C145.581 442.124 148.183 442.687 151.001 443.7C153.765 444.714 156.096 446.009 157.722 447.078C159.348 448.148 160.269 448.936 160.215 448.993Z" fill="#FF9A6C"/>
<path d="M159.131 440.998C159.077 441.167 157.126 440.21 154.741 439.253C153.549 438.746 152.41 438.408 151.597 438.239C150.784 438.07 150.242 438.07 150.242 437.958C150.242 437.901 150.784 437.789 151.652 437.845C152.519 437.901 153.711 438.183 154.904 438.69C157.397 439.703 159.185 440.829 159.131 440.998Z" fill="#FF9A6C"/>
<path d="M156.204 473.596C156.204 473.708 155.446 473.708 154.253 473.539C153.061 473.37 151.435 472.864 149.7 472.188C147.966 471.456 146.503 470.668 145.419 470.105C144.389 469.486 143.738 469.092 143.793 469.035C143.847 468.81 146.557 470.218 149.917 471.625C151.597 472.301 153.169 472.864 154.307 473.145C155.446 473.427 156.204 473.539 156.204 473.596Z" fill="#FF9A6C"/>
<path d="M148.779 471.175C148.887 471.231 148.616 472.357 147.641 473.314C146.719 474.271 145.581 474.44 145.581 474.271C145.527 474.159 146.448 473.708 147.261 472.864C148.129 472.019 148.616 471.118 148.779 471.175Z" fill="#FF9A6C"/>
<path d="M320.376 258.98C320.376 258.98 354.197 257.573 371.433 282.232C388.126 306.103 401.243 355.816 401.243 355.816L336.745 364.711L327.151 300.079L320.376 258.98Z" fill="#FF725E"/>
<path d="M374.739 454.06C374.63 454.06 374.197 451.864 372.896 448.486C372.517 447.698 372.137 446.741 371.649 445.84C371.216 444.883 370.674 443.926 370.078 442.856C368.831 440.885 367.313 438.746 365.525 436.719C363.682 434.749 361.731 433.003 359.888 431.596C358.967 430.92 358.045 430.245 357.178 429.738C356.311 429.175 355.444 428.725 354.685 428.33C351.541 426.754 349.427 426.135 349.482 426.022C349.482 425.966 350.024 426.135 350.945 426.416C351.433 426.529 351.975 426.754 352.625 426.979C353.276 427.261 354.034 427.542 354.847 427.936C355.66 428.33 356.528 428.781 357.395 429.344C358.316 429.851 359.238 430.526 360.213 431.145C362.11 432.553 364.061 434.298 365.904 436.325C367.747 438.352 369.265 440.548 370.511 442.574C371.107 443.644 371.649 444.657 372.083 445.615C372.571 446.572 372.95 447.529 373.221 448.373C373.601 449.218 373.817 450.006 374.034 450.682C374.251 451.357 374.359 451.976 374.468 452.483C374.685 453.497 374.793 454.06 374.739 454.06Z" fill="#FF9A6C"/>
<path d="M327.151 300.079C327.187 300.079 327.314 300.361 327.531 300.924C327.783 301.562 328.109 302.387 328.506 303.401C329.319 305.596 330.349 308.749 331.433 312.747C333.655 320.685 335.877 331.889 337.829 344.387C339.78 356.829 341.135 368.146 342.11 376.366C342.598 380.419 342.978 383.741 343.249 386.105C343.357 387.194 343.447 388.076 343.52 388.752C343.592 389.352 343.61 389.652 343.574 389.652C343.574 389.652 343.52 389.352 343.411 388.752C343.303 388.113 343.176 387.231 343.032 386.105C342.707 383.797 342.273 380.475 341.731 376.422C340.647 368.258 339.184 356.886 337.232 344.443C335.281 332.001 333.167 320.797 331.054 312.859C330.024 308.862 329.048 305.653 328.289 303.513C327.928 302.462 327.639 301.618 327.422 300.98C327.241 300.417 327.151 300.117 327.151 300.079Z" fill="#263238"/>
<path d="M212.41 310.551L205.797 383.065L195.716 364.599L143.792 371.017C144.334 373.776 162.817 441.279 170.784 460.027C178.751 478.775 201.028 512.049 225.96 500.113C250.946 488.121 249.32 393.819 249.32 383.065C249.32 372.312 244.333 308.186 244.333 308.186" fill="#FFBF9D"/>
<path d="M244.333 308.186C244.333 308.186 244.388 308.637 244.496 309.537C244.568 310.401 244.677 311.696 244.821 313.422C245.092 316.856 245.472 321.923 246.014 328.454C246.447 334.985 247.043 342.98 247.748 352.213C248.073 356.867 248.398 361.821 248.724 367.076C249.049 372.312 249.482 377.886 249.537 383.741C249.645 395.451 249.482 408.288 248.724 422.025C247.965 435.762 246.718 450.456 243.629 465.657C242.057 473.202 240.052 480.915 236.583 488.234C234.794 491.837 232.572 495.384 229.483 498.086C228.67 498.762 227.857 499.381 226.989 499.888C226.068 500.394 225.147 500.732 224.171 501.183C223.25 501.577 222.274 501.802 221.298 502.14C220.269 502.309 219.293 502.646 218.263 502.703C216.258 503.041 214.144 502.928 212.139 502.703C210.079 502.421 208.019 501.915 206.068 501.183C202.166 499.719 198.534 497.411 195.228 494.764C188.616 489.36 183.087 482.435 178.372 475.003C175.77 470.837 173.44 466.558 171.434 462.167C169.429 457.719 167.803 453.159 166.285 448.655C163.25 439.59 160.486 430.639 157.83 421.8C155.174 413.017 152.681 404.347 150.296 395.902C147.912 387.4 145.581 379.181 143.521 371.073L143.467 370.792H143.738C162.546 368.484 179.944 366.344 195.716 364.374H195.824L195.933 364.486C199.456 371.017 202.816 377.154 205.96 382.953L205.635 383.065C207.694 360.545 209.374 342.473 210.513 329.918C211.109 323.725 211.597 318.883 211.868 315.562C212.048 313.948 212.175 312.709 212.247 311.846C212.355 310.983 212.41 310.551 212.41 310.551C212.41 310.551 212.374 310.983 212.301 311.846C212.229 312.709 212.121 313.948 211.976 315.562C211.705 318.883 211.271 323.725 210.729 329.974C209.645 342.473 208.019 360.602 206.014 383.122L205.96 383.741L205.635 383.178C202.491 377.379 199.131 371.242 195.553 364.711L195.77 364.824C179.998 366.795 162.6 368.934 143.792 371.299L144.009 370.961C146.069 379.012 148.454 387.288 150.838 395.733C153.223 404.178 155.716 412.848 158.372 421.631C161.028 430.47 163.738 439.422 166.827 448.43C168.345 452.99 169.971 457.494 171.922 461.885C173.928 466.277 176.258 470.555 178.86 474.665C183.521 482.097 188.995 488.966 195.553 494.314C198.86 496.96 202.437 499.156 206.285 500.62C208.182 501.352 210.187 501.858 212.193 502.14C214.198 502.309 216.204 502.421 218.209 502.14C219.185 502.027 220.16 501.746 221.136 501.577C222.111 501.239 223.087 501.014 224.008 500.62C224.93 500.226 225.851 499.888 226.718 499.381C227.586 498.874 228.344 498.311 229.157 497.692C232.138 495.046 234.306 491.555 236.095 488.008C239.564 480.746 241.515 473.033 243.141 465.545C246.176 450.4 247.477 435.706 248.29 422.025C249.049 408.288 249.211 395.451 249.157 383.741C249.103 377.942 248.669 372.368 248.398 367.076C248.037 361.821 247.712 356.886 247.423 352.269C246.772 342.98 246.23 334.985 245.743 328.454C245.309 321.923 244.93 316.856 244.713 313.422C244.568 311.733 244.478 310.438 244.442 309.537C244.333 308.637 244.333 308.186 244.333 308.186Z" fill="#FF9A6C"/>
<path d="M205.635 381.207C205.671 381.207 205.653 381.489 205.581 382.052C205.526 382.615 205.472 383.459 205.31 384.529C204.984 386.612 204.334 389.652 203.142 393.312C201.949 396.971 200.161 401.138 197.884 405.642C195.608 410.146 192.844 414.875 189.971 419.942C187.153 424.952 184.605 429.851 182.654 434.523C180.703 439.14 179.348 443.475 178.643 447.191C177.884 450.963 177.668 454.06 177.668 456.199C177.668 457.269 177.722 458.057 177.722 458.62C177.758 459.183 177.758 459.483 177.722 459.521C177.722 459.521 177.686 459.22 177.613 458.62C177.613 458.057 177.451 457.269 177.451 456.199C177.397 454.06 177.559 450.907 178.21 447.135C178.914 443.363 180.269 438.971 182.166 434.298C184.117 429.625 186.665 424.671 189.483 419.66C192.356 414.593 195.12 409.808 197.396 405.36C199.673 400.912 201.516 396.802 202.762 393.199C204.009 389.596 204.713 386.556 205.093 384.473C205.31 383.403 205.364 382.615 205.472 382.052C205.581 381.489 205.635 381.207 205.635 381.207Z" fill="#FF9A6C"/>
<path d="M162.221 298.559C160.811 298.897 136.476 310.551 136.638 349.567C136.747 378.674 144.28 406.599 144.28 406.599L202.979 377.886L162.221 298.559Z" fill="#FF725E"/>
<path d="M244.334 308.186C244.334 308.186 251.271 300.755 251.271 291.071C251.271 281.387 247.694 271.704 247.694 271.704C247.694 271.704 246.502 261.514 245.797 257.573L248.941 251.38C248.941 251.38 257.558 255.321 258.968 249.522L253.927 242.315C252.789 240.683 251.163 239.557 249.32 238.994L241.678 236.798C238.968 236.01 236.095 236.46 233.819 238.093L224.876 244.286L230.458 232.35L239.781 230.323C239.781 230.323 253.06 236.291 255.553 228.465L244.442 221.766L223.25 222.104C223.25 222.104 218.426 228.297 217.342 230.154C216.258 232.012 212.789 238.431 212.789 238.431L207.478 224.187C207.478 224.187 207.64 215.066 207.423 207.522C207.207 199.189 202.491 196.374 197.667 199.189C197.18 199.415 195.012 221.822 196.096 227.058C197.18 232.238 206.448 271.028 206.448 271.028C206.448 271.028 209.646 279.867 210.946 282.457C213.656 288.087 213.44 292.816 213.548 294.899C213.765 299.009 212.301 311.789 212.301 311.789" fill="#FFBF9D"/>
<path d="M212.301 311.789C212.265 311.789 212.283 311.545 212.356 311.058C212.392 310.57 212.464 309.856 212.572 308.918C212.735 307.06 213.006 304.302 213.277 300.642C213.385 298.84 213.548 296.87 213.44 294.618C213.385 292.422 213.223 290.001 212.627 287.524C212.301 286.286 211.868 285.028 211.326 283.752C210.784 282.513 210.133 281.219 209.591 279.811C208.507 277.109 207.423 274.181 206.285 271.085C204.713 264.666 203.033 257.573 201.245 249.916C200.341 246.05 199.402 242.071 198.426 237.98C197.956 235.916 197.469 233.833 196.963 231.731C196.71 230.642 196.457 229.573 196.204 228.522C196.041 227.959 195.933 227.452 195.825 226.889C195.716 226.326 195.662 225.763 195.608 225.2C195.391 220.64 195.716 216.023 196.041 211.294C196.186 208.929 196.385 206.546 196.638 204.144C196.8 202.962 196.909 201.723 197.071 200.484C197.143 200.184 197.198 199.884 197.234 199.584C197.288 199.527 197.288 199.415 197.288 199.358L197.342 199.246V199.133C197.378 199.096 197.414 199.058 197.451 199.021C197.505 198.908 197.559 198.908 197.559 198.908L197.667 198.852L197.884 198.739C198.426 198.439 199.004 198.214 199.619 198.063C200.811 197.726 202.112 197.782 203.304 198.289C204.497 198.795 205.418 199.752 206.068 200.878C207.369 203.13 207.694 205.833 207.694 208.423C207.731 213.565 207.749 218.819 207.749 224.187V224.074C209.429 228.578 211.217 233.42 213.06 238.318L212.518 238.262C214.036 235.559 215.608 232.744 217.179 229.873C218.968 227.114 221.028 224.581 223.033 221.935L223.141 221.822H223.25C224.496 221.822 225.851 221.766 227.206 221.766C233.024 221.653 238.769 221.559 244.442 221.484L244.496 221.428L244.605 221.484C248.326 223.774 252.03 226.007 255.716 228.184L255.878 228.353L255.824 228.522C255.336 230.098 254.198 231.449 252.735 232.069C251.325 232.688 249.754 232.857 248.236 232.744C245.255 232.575 242.382 231.731 239.672 230.605H239.835C236.691 231.28 233.584 231.956 230.513 232.632L230.675 232.519C228.796 236.573 226.935 240.532 225.093 244.398L224.713 244.061C227.821 241.921 230.874 239.801 233.873 237.699C235.445 236.685 237.233 236.179 239.076 236.122C239.943 236.122 240.865 236.291 241.732 236.516C242.563 236.779 243.394 237.023 244.225 237.248C245.887 237.736 247.513 238.224 249.103 238.712C250.783 239.106 252.301 240.063 253.439 241.358C255.499 244.061 257.287 246.763 259.13 249.353L259.239 249.465L259.184 249.578C258.913 250.648 258.317 251.605 257.396 252.168C256.474 252.731 255.445 252.9 254.469 252.9C252.464 252.843 250.567 252.337 248.832 251.548L249.103 251.492C247.965 253.688 246.935 255.715 245.96 257.629V257.516C246.827 262.583 247.315 267.312 247.857 271.648C249.808 277.446 250.892 282.851 251.271 287.637C251.434 290.058 251.488 292.31 251.109 294.336C250.783 296.307 250.241 298.109 249.645 299.629C248.399 302.725 246.989 304.808 245.96 306.216C245.454 306.891 245.056 307.398 244.767 307.736C244.496 308.017 244.334 308.186 244.334 308.186C244.334 308.186 244.478 308.017 244.767 307.68C245.02 307.342 245.4 306.835 245.905 306.159C246.881 304.752 248.236 302.613 249.483 299.572C250.025 298.052 250.567 296.251 250.892 294.28C251.217 292.253 251.163 290.058 251 287.693C250.567 282.908 249.483 277.503 247.531 271.76H247.477V271.704C246.989 267.369 246.447 262.64 245.58 257.573V257.516V257.46C246.61 255.489 247.64 253.463 248.724 251.267L248.832 251.098L248.995 251.211C250.675 251.886 252.572 252.393 254.469 252.449C255.39 252.449 256.366 252.28 257.125 251.774C257.938 251.267 258.48 250.422 258.751 249.465L258.805 249.634C256.962 247.101 255.119 244.342 253.114 241.696C252.03 240.457 250.567 239.557 248.995 239.162C247.369 238.675 245.725 238.205 244.063 237.755C242.437 237.305 240.756 236.629 239.076 236.685C237.342 236.685 235.607 237.192 234.144 238.149C231.181 240.251 228.146 242.372 225.038 244.511L224.225 245.074L224.659 244.173C226.466 240.307 228.308 236.329 230.187 232.238L230.242 232.125H230.404C233.476 231.449 236.583 230.755 239.727 230.042H239.781H239.889C242.545 231.168 245.363 232.012 248.29 232.181C249.699 232.238 251.217 232.125 252.518 231.562C253.873 230.999 254.848 229.817 255.282 228.353L255.445 228.691C251.759 226.476 248.037 224.243 244.279 221.991L244.442 222.047C238.769 222.16 233.042 222.254 227.261 222.329C225.906 222.385 224.551 222.385 223.25 222.441L223.467 222.329C221.461 224.919 219.402 227.508 217.667 230.211C216.095 233.026 214.524 235.841 213.006 238.543L212.735 239.106L212.518 238.487C210.675 233.589 208.887 228.747 207.207 224.299V224.243V224.187C207.207 218.819 207.189 213.565 207.152 208.423C207.207 205.889 206.881 203.299 205.635 201.16C205.039 200.147 204.171 199.246 203.087 198.795C202.058 198.345 200.865 198.289 199.727 198.57C199.185 198.72 198.643 198.945 198.101 199.246L197.938 199.302L197.83 199.358L197.776 199.415C197.884 199.584 197.613 199.133 197.667 199.246C197.722 199.302 197.83 199.415 197.83 199.415C197.83 199.377 197.83 199.358 197.83 199.358V199.415L197.776 199.471C197.776 199.546 197.776 199.621 197.776 199.696C197.704 199.996 197.649 200.297 197.613 200.597C197.451 201.779 197.288 203.018 197.18 204.2C196.927 206.602 196.71 208.986 196.529 211.35C196.204 216.079 195.879 220.696 196.096 225.144C196.15 225.707 196.204 226.27 196.312 226.776C196.367 227.339 196.529 227.846 196.638 228.409C196.891 229.498 197.143 230.567 197.396 231.618C197.902 233.72 198.39 235.803 198.86 237.868C199.835 241.996 200.775 245.975 201.678 249.803C203.467 257.46 205.093 264.554 206.61 270.972C207.749 274.068 208.833 276.996 209.917 279.698C210.459 281.05 211.055 282.345 211.597 283.639C212.139 284.916 212.572 286.192 212.898 287.468C213.494 290.001 213.656 292.422 213.656 294.618C213.765 296.87 213.602 298.897 213.44 300.698C213.169 304.302 212.843 307.06 212.627 308.974C212.518 309.875 212.446 310.57 212.41 311.058C212.338 311.545 212.301 311.789 212.301 311.789Z" fill="#FF9A6C"/>
<path d="M246.935 239.331C246.935 239.388 245.96 239.388 244.605 240.232C243.25 241.02 241.624 242.54 239.781 244.117C237.884 245.75 236.204 247.157 234.957 248.17C233.71 249.184 232.897 249.747 232.843 249.691C232.789 249.634 233.494 248.959 234.686 247.833C235.878 246.763 237.559 245.299 239.401 243.666C241.298 242.09 242.924 240.57 244.388 239.838C245.905 239.106 246.989 239.219 246.935 239.331Z" fill="#FF9A6C"/>
<path d="M186.34 327.666C186.448 327.61 190.405 338.813 195.066 352.72C199.781 366.682 203.467 377.998 203.304 378.055C203.196 378.111 199.239 366.851 194.578 352.945C189.863 339.039 186.177 327.722 186.34 327.666Z" fill="#263238"/>
</svg>
