<svg width="124" height="29" viewBox="0 0 124 29" fill="none" xmlns="http://www.w3.org/2000/svg">
<path fill-rule="evenodd" clip-rule="evenodd" d="M82.1771 5.8752C81.2879 5.3184 80.2248 5.04 78.9877 5.04C77.6539 5.04 76.4603 5.3712 75.4069 6.0336C74.3534 6.696 73.5222 7.64639 72.9133 8.8848C72.3044 10.1232 72 11.5872 72 13.2768C72 14.9472 72.3044 16.4064 72.9133 17.6544C73.5222 18.9024 74.3534 19.8576 75.4069 20.52C76.4603 21.1824 77.6539 21.5136 78.9877 21.5136C80.2248 21.5136 81.2879 21.2352 82.1771 20.6784C83.0663 20.1216 83.7138 19.3632 84.1197 18.4032V21.312H89.0778V0H84.1197V8.1504C83.7138 7.1904 83.0663 6.432 82.1771 5.8752ZM60.4084 6C62.0128 6 63.448 6.3312 64.7141 6.9936C65.9802 7.656 66.9757 8.61119 67.7006 9.8592C68.4254 11.1072 68.7879 12.5664 68.7879 14.2368C68.7879 15.9072 68.4254 17.3664 67.7006 18.6144C66.9757 19.8624 65.9802 20.8176 64.7141 21.48C63.448 22.1424 62.0128 22.4736 60.4084 22.4736C58.8041 22.4736 57.364 22.1424 56.0882 21.48C54.8125 20.8176 53.8122 19.8624 53.0873 18.6144C52.3624 17.3664 52 15.9072 52 14.2368C52 12.5664 52.3624 11.1072 53.0873 9.8592C53.8122 8.61119 54.8125 7.656 56.0882 6.9936C57.364 6.3312 58.8041 6 60.4084 6ZM60.4084 10.2625C59.4613 10.2625 58.6639 10.6032 58.0164 11.2849C57.3688 11.9665 57.045 12.9504 57.045 14.2369C57.045 15.5233 57.3688 16.5024 58.0164 17.1745C58.6639 17.8465 59.4613 18.1825 60.4084 18.1825C61.3556 18.1825 62.1481 17.8465 62.786 17.1745C63.4239 16.5024 63.7428 15.5233 63.7428 14.2369C63.7428 12.9504 63.4239 11.9665 62.786 11.2849C62.1481 10.6032 61.3556 10.2625 60.4084 10.2625ZM80.5824 9.36011C79.5192 9.36011 78.6639 9.7057 78.0164 10.3969C77.3688 11.0881 77.045 12.0481 77.045 13.2769C77.045 14.5057 77.3688 15.4657 78.0164 16.1569C78.6639 16.8481 79.5192 17.1937 80.5824 17.1937C81.6262 17.1937 82.4815 16.8385 83.1484 16.1281C83.8153 15.4177 84.1487 14.4673 84.1487 13.2769C84.1487 12.0673 83.8153 11.1121 83.1484 10.4113C82.4815 9.7105 81.6262 9.36011 80.5824 9.36011ZM45.8448 4.08042C44.1757 2.69347 42.1065 2 39.6372 2C37.7623 2 36.0933 2.40209 34.63 3.20629C33.1667 4.01049 32.0292 5.16433 31.2175 6.66783C30.4058 8.17134 30 9.94871 30 12C30 14.028 30.4115 15.7995 31.2347 17.3147C32.0578 18.8298 33.1952 19.9895 34.6471 20.7937C36.099 21.5979 37.7623 22 39.6372 22C42.1065 22 44.1757 21.3065 45.8448 19.9196C47.5138 18.5326 48.5656 16.6271 49 14.2028H42.7924C42.6095 15.042 42.2323 15.6946 41.6606 16.1608C41.089 16.627 40.3688 16.8601 39.5 16.8601C38.4711 16.8601 37.6252 16.4464 36.9621 15.6189C36.299 14.7914 35.9675 13.5851 35.9675 12C35.9675 10.4149 36.299 9.20863 36.9621 8.38112C37.6252 7.55361 38.4711 7.13986 39.5 7.13986C40.3688 7.13986 41.089 7.37296 41.6606 7.83916C42.2323 8.30536 42.6095 8.95804 42.7924 9.7972H49C48.5656 7.37295 47.5138 5.46737 45.8448 4.08042ZM123.409 17.0783V21.3119H121.176C119.282 21.3119 117.808 20.8463 116.755 19.9151C115.701 18.9839 115.175 17.4431 115.175 15.2927V9.3887H113V5.2415H115.175V1.2959H120.133V5.2415H123.38V9.3887H120.133V15.3791C120.133 16.0127 120.263 16.4543 120.524 16.7039C120.785 16.9535 121.225 17.0783 121.843 17.0783H123.409ZM101.423 15.0913L97.538 5.2417H92L98.7847 20.7073L94.9864 28.9729H100.437L110.528 5.2417H105.048L101.423 15.0913Z" fill="#173A56"/>
<path fill-rule="evenodd" clip-rule="evenodd" d="M1.27199 10.6523C1.25599 10.6523 1.24799 10.6523 1.24799 10.6523C1.32799 10.6685 1.40799 10.6846 1.48799 10.7008C1.40799 10.6846 1.33599 10.6685 1.27199 10.6523Z" fill="#FFC005"/>
<path d="M11.448 3.82506C11.448 4.89033 11.328 5.93138 11.112 6.92401C10.92 7.91664 10.608 8.86085 10.2 9.73243C9.33599 10.1198 8.42399 10.4345 7.43999 10.6524C6.45599 10.8703 5.42399 10.9914 4.34399 10.9914C3.35999 10.9914 2.42399 10.8945 1.48799 10.7009C1.40799 10.6847 1.33599 10.6686 1.27199 10.6524C1.33599 10.6363 1.40799 10.6201 1.48799 10.604C1.40799 10.6201 1.32799 10.6363 1.24799 10.6524C1.82399 8.0619 3.04799 5.78612 4.72799 4.16401C6.33599 2.49348 8.56799 1.25875 11.112 0.701904C11.328 1.69454 11.448 2.73559 11.448 3.82506Z" fill="#FFC005"/>
<path d="M1.48799 10.7008C1.40799 10.6846 1.32799 10.6685 1.24799 10.6523C1.24799 10.6523 1.25599 10.6523 1.27199 10.6523C1.33599 10.6685 1.40799 10.6846 1.48799 10.7008Z" fill="#FFC005"/>
<path d="M11.112 0.701984C10.128 0.48409 9.09597 0.363037 8.01597 0.363037C5.90397 0.363037 3.91197 0.823037 2.15997 1.62198C1.36797 3.36514 0.935974 5.39883 0.935974 7.52935C0.935974 8.59462 1.03197 9.65988 1.24797 10.6525C1.82397 8.06198 3.04797 5.7862 4.72797 4.16409C6.33597 2.49356 8.56797 1.25883 11.112 0.701984Z" fill="#FF0C5D"/>
<path d="M19.536 10.9914C18.456 10.9914 17.424 10.8703 16.44 10.6524C15.48 10.4345 14.544 10.1198 13.68 9.73243C13.272 8.86085 12.96 7.91664 12.768 6.94822C12.552 5.95559 12.432 4.89033 12.432 3.82506C12.432 2.83243 12.528 1.86401 12.696 0.94401C12.712 0.863308 12.736 0.782606 12.768 0.701904C15.336 1.25875 17.568 2.51769 19.2 4.21243C20.856 5.83454 22.08 8.08611 22.632 10.6524C22.616 10.6524 22.608 10.6524 22.608 10.6524C21.624 10.8703 20.592 10.9914 19.536 10.9914Z" fill="#FFC005"/>
<path d="M22.632 10.6525C22.848 9.65988 22.968 8.61883 22.968 7.52935C22.968 5.39883 22.512 3.36514 21.72 1.62198C19.968 0.823037 17.976 0.363037 15.84 0.363037C14.784 0.363037 13.752 0.48409 12.768 0.701984C15.336 1.25883 17.568 2.51777 19.2 4.21251C20.856 5.83462 22.08 8.08619 22.632 10.6525Z" fill="#221ECA"/>
<path fill-rule="evenodd" clip-rule="evenodd" d="M22.608 12.2989C22.624 12.2989 22.632 12.2989 22.632 12.2989C22.552 12.2828 22.472 12.2666 22.392 12.2505C22.472 12.2666 22.544 12.2828 22.608 12.2989Z" fill="#FFC005"/>
<path d="M12.432 19.1263C12.432 18.061 12.552 17.02 12.768 16.0273C12.96 15.0347 13.272 14.0905 13.68 13.2189C14.544 12.8315 15.456 12.5168 16.44 12.2989C17.424 12.081 18.456 11.96 19.536 11.96C20.52 11.96 21.48 12.0568 22.392 12.2505C22.472 12.2666 22.544 12.2828 22.608 12.2989C22.544 12.315 22.472 12.3312 22.392 12.3473C22.472 12.3312 22.552 12.315 22.632 12.2989C22.056 14.9136 20.832 17.1652 19.152 18.7873C17.544 20.4579 15.312 21.6926 12.768 22.2494C12.552 21.2568 12.432 20.2157 12.432 19.1263Z" fill="#FFC005"/>
<path d="M22.392 12.2505C22.472 12.2666 22.552 12.2828 22.632 12.2989C22.632 12.2989 22.624 12.2989 22.608 12.2989C22.544 12.2828 22.472 12.2666 22.392 12.2505Z" fill="#FFC005"/>
<path d="M12.768 22.2494C13.752 22.4672 14.784 22.5883 15.864 22.5883C17.976 22.5883 19.968 22.1283 21.72 21.3294C22.512 19.5862 22.944 17.5767 22.944 15.422C22.944 14.3567 22.848 13.2915 22.632 12.2988C22.056 14.9136 20.832 17.1651 19.152 18.7872C17.544 20.4578 15.312 21.6925 12.768 22.2494Z" fill="#FF0C5D"/>
<path d="M4.34399 11.96C5.42399 11.96 6.45599 12.081 7.43999 12.2989C8.39999 12.5168 9.33599 12.8315 10.2 13.2189C10.608 14.0905 10.92 15.0347 11.112 16.0031C11.352 16.9957 11.448 18.061 11.448 19.1263C11.448 20.1189 11.352 21.0873 11.184 22.0073C11.168 22.088 11.144 22.1687 11.112 22.2494C8.54399 21.6926 6.31199 20.4336 4.67999 18.7631C3.02399 17.1168 1.79999 14.8894 1.24799 12.2989C1.26399 12.2989 1.27199 12.2989 1.27199 12.2989C2.25599 12.081 3.28799 11.96 4.34399 11.96Z" fill="#FFC005"/>
<path d="M1.24799 12.2988C1.03199 13.2915 0.911987 14.3567 0.911987 15.422C0.911987 17.5525 1.36799 19.5862 2.15999 21.3294C3.91199 22.1283 5.90399 22.5883 8.03999 22.5883C9.09599 22.5883 10.128 22.4672 11.112 22.2494C8.54399 21.6925 6.31199 20.4336 4.67999 18.763C3.02399 17.1167 1.79999 14.8894 1.24799 12.2988Z" fill="#221ECA"/>
</svg>
