<svg width="25" height="25" viewBox="0 0 25 25" fill="none" xmlns="http://www.w3.org/2000/svg">
<g clip-path="url(#clip0_11_18462)">
<path d="M23.4791 6.68752C23.3554 6.19316 23.1034 5.7402 22.7486 5.3744C22.3937 5.0086 21.9487 4.74292 21.4583 4.60419C19.6666 4.16669 12.5 4.16669 12.5 4.16669C12.5 4.16669 5.33331 4.16669 3.54164 4.64585C3.05127 4.78459 2.6062 5.05027 2.25138 5.41607C1.89655 5.78187 1.64455 6.23482 1.52081 6.72919C1.19291 8.54747 1.03251 10.392 1.04164 12.2396C1.02995 14.1011 1.19036 15.9597 1.52081 17.7917C1.65722 18.2707 1.91488 18.7064 2.26887 19.0568C2.62287 19.4071 3.06125 19.6602 3.54164 19.7917C5.33331 20.2709 12.5 20.2709 12.5 20.2709C12.5 20.2709 19.6666 20.2709 21.4583 19.7917C21.9487 19.653 22.3937 19.3873 22.7486 19.0215C23.1034 18.6557 23.3554 18.2027 23.4791 17.7084C23.8045 15.9038 23.9649 14.0733 23.9583 12.2396C23.97 10.3781 23.8096 8.5195 23.4791 6.68752V6.68752Z" stroke="black" stroke-linecap="round" stroke-linejoin="round"/>
<path d="M10.1562 15.6458L16.1458 12.2396L10.1562 8.83331V15.6458Z" stroke="black" stroke-linecap="round" stroke-linejoin="round"/>
</g>
<defs>
<clipPath id="clip0_11_18462">
<rect width="25" height="25" fill="white"/>
</clipPath>
</defs>
</svg>
