<svg width="52" height="52" viewBox="0 0 52 52" fill="none" xmlns="http://www.w3.org/2000/svg">
<g clip-path="url(#clip0_44_5066)">
<path d="M51.1333 26.2888C51.1333 40.4444 39.7222 51.8555 25.5667 51.8555C11.4111 51.8555 0 40.4444 0 26.2888C0 12.1333 11.4111 0.722168 25.5667 0.722168C39.7222 0.722168 51.1333 12.1333 51.1333 26.2888Z" fill="#00D95F"/>
<path d="M40.7333 26.4332L17.9111 9.82212C17.0444 9.24435 15.7444 9.82212 15.7444 10.9777V39.1443C15.7444 40.5888 17.1888 41.4555 18.4888 40.7332L26.5777 32.0666L31.7777 42.3221C31.9222 42.7555 32.3555 42.8999 32.7888 42.8999C32.9814 42.8999 33.174 42.8518 33.3666 42.7555C33.9444 42.4666 34.0888 41.7443 33.7999 41.1666L28.5999 30.911L40.4444 29.611C41.7444 29.0332 41.7444 27.2999 40.7333 26.4332Z" fill="white"/>
</g>
<defs>
<clipPath id="clip0_44_5066">
<rect width="52" height="52" fill="white"/>
</clipPath>
</defs>
</svg>
