<svg width="52" height="53" viewBox="0 0 52 53" fill="none" xmlns="http://www.w3.org/2000/svg">
<path d="M52.5889 26.3528C52.5889 40.6333 40.9583 52.4111 26.5306 52.4111C12.1028 52.4111 0.472229 40.6333 0.472229 26.3528C0.472229 11.925 12.1028 0.294434 26.5306 0.294434C40.9583 0.294434 52.5889 11.925 52.5889 26.3528Z" fill="#D53692"/>
<path d="M33.8917 13.9861C33.8917 18.1083 30.6528 21.4944 26.5305 21.4944C22.4083 21.4944 19.1694 18.1083 19.1694 13.9861C19.1694 9.86389 22.4083 6.625 26.5305 6.625C30.6528 6.625 33.8917 9.86389 33.8917 13.9861Z" fill="white"/>
<path d="M26.5305 23.9972C18.875 23.9972 12.8389 30.1805 12.8389 37.6889C12.8389 39.75 14.4583 41.3694 16.3722 41.3694H36.6889C38.75 41.3694 40.3694 39.75 40.3694 37.6889C40.3694 30.1805 34.1861 23.9972 26.5305 23.9972Z" fill="white"/>
</svg>
