<svg width="52" height="52" viewBox="0 0 52 52" fill="none" xmlns="http://www.w3.org/2000/svg">
<g clip-path="url(#clip0_44_5053)">
<path d="M51.1333 25.4223C51.1333 39.5778 39.7222 50.9889 25.5667 50.9889C11.4111 50.9889 0 39.5778 0 25.4223C0 11.2667 11.4111 -0.144409 25.5667 -0.144409C39.7222 -0.144409 51.1333 11.2667 51.1333 25.4223Z" fill="#8F39CE"/>
<path d="M11.1222 12.7112L22.9667 26.1445C23.5444 26.8667 24.5556 27.3001 25.5667 27.3001C26.5778 27.3001 27.5889 26.8667 28.1667 26.1445L39.8667 12.8556C39.963 12.7593 40.0593 12.7112 40.1556 12.7112C39.6741 12.4223 39.1444 12.2778 38.5667 12.2778H12.5667C11.9889 12.2778 11.4593 12.3741 10.9778 12.5667C10.9778 12.663 11.0259 12.7112 11.1222 12.7112Z" fill="white"/>
<path d="M42.0333 14.1556C41.937 14.3482 41.8407 14.4927 41.7444 14.589L30.1889 27.7334C29.0333 29.0334 27.3 29.9001 25.5667 29.9001C23.8333 29.9001 22.1 29.0334 20.9444 27.7334L9.09999 14.3001C8.71481 14.8779 8.52222 15.5519 8.52222 16.3223V34.5223C8.52222 36.689 10.2555 38.5668 12.5667 38.5668H38.5667C40.8778 38.5668 42.6111 36.689 42.6111 34.5223V16.3223C42.6111 15.5519 42.4185 14.8297 42.0333 14.1556Z" fill="white"/>
</g>
<defs>
<clipPath id="clip0_44_5053">
<rect width="52" height="52" fill="white"/>
</clipPath>
</defs>
</svg>
