<svg width="50" height="53" viewBox="0 0 50 53" fill="none" xmlns="http://www.w3.org/2000/svg">
<g clip-path="url(#clip0_0_557)">
<rect width="50" height="52.2472" rx="19" fill="#F03E3D"/>
<path d="M25 34.1429C25.1429 34.1429 25.2857 34.0893 25.3929 33.9821L30.9554 28.625C31.0357 28.5446 33 26.75 33 24.6071C33 21.9911 31.4018 20.4286 28.7321 20.4286C27.1696 20.4286 25.7054 21.6607 25 22.3571C24.2946 21.6607 22.8304 20.4286 21.2679 20.4286C18.5982 20.4286 17 21.9911 17 24.6071C17 26.75 18.9643 28.5446 19.0357 28.6071L24.6071 33.9821C24.7143 34.0893 24.8571 34.1429 25 34.1429Z" fill="white"/>
</g>
<defs>
<clipPath id="clip0_0_557">
<rect width="50" height="52.2472" fill="white"/>
</clipPath>
</defs>
</svg>
